<?xml version="1.0" encoding="utf-8"?>
<svg id="svg2" width="720" height="234" viewBox="0 0 720 234" xmlns="http://www.w3.org/2000/svg">
  <g transform="matrix(1.3333333,0,0,-1.3333333,0,470.88)" id="g10">
    <g transform="scale(0.1)" id="g12">
      <path id="path14" style="fill:#1f6249;fill-opacity:1;fill-rule:nonzero;stroke:none" d="m 4130.04,2021.23 h 50.82 v 125.16 c 0,34.44 20.59,55.02 49.98,55.02 30.24,0 47.46,-19.74 47.46,-54.18 v -126 h 50.82 v 141.12 c 0,51.66 -28.97,85.26 -78.95,85.26 -34.45,0 -55.02,-18.06 -69.31,-39.06 v 119.28 h -50.82 v -306.6 z m -162.54,60.48 c -34.85,0 -63,24.78 -63,61.32 v 0.84 c 0,36.54 27.72,60.89 63,60.89 35.28,0 65.11,-24.77 65.11,-61.31 v -0.84 c 0,-35.7 -29.83,-60.9 -65.11,-60.9 z m -4.2,-128.52 c 39.9,0 70.99,9.66 91.14,29.82 18.48,18.48 28.14,46.2 28.14,83.58 v 176.4 h -50.81 v -33.18 c -17.23,20.58 -40.32,37.8 -77.71,37.8 -51.66,0 -100.8,-38.64 -100.8,-104.16 v -0.84 c 0,-65.1 48.72,-103.74 100.8,-103.74 36.55,0 59.64,16.8 78.12,40.74 v -17.22 c 0,-44.52 -24.78,-68.05 -70.14,-68.05 -30.23,0 -55.44,8.83 -78.95,23.53 l -18.91,-38.22 c 28.56,-17.22 62.59,-26.46 99.12,-26.46 z m -256.2,68.04 h 50.82 v 84.42 c 0,58.8 31.09,87.78 75.61,87.78 h 2.93 v 53.76 c -39.06,1.68 -64.67,-21 -78.54,-54.18 v 49.98 h -50.82 v -221.76 z m -171.35,-4.62 c 34.45,0 55.02,18.06 69.3,39.06 v -34.44 h 50.82 v 221.76 h -50.82 v -125.16 c 0,-34.44 -20.58,-55.02 -49.98,-55.02 -30.24,0 -47.45,19.74 -47.45,54.18 v 126 h -50.82 v -141.12 c 0,-51.66 28.97,-85.26 78.95,-85.26 z m -233.93,44.1 c -34.45,0 -64.69,28.14 -64.69,70.98 v 0.84 c 0,42.42 30.24,70.97 64.69,70.97 34.43,0 63.41,-28.13 63.41,-70.97 v -0.84 c 0,-43.68 -28.56,-70.98 -63.41,-70.98 z m 11.75,-44.1 c 52.92,0 103.32,41.58 103.32,115.08 v 0.84 c 0,73.5 -50.82,115.08 -103.32,115.08 -35.7,0 -58.79,-18.48 -75.18,-41.58 v 121.8 h -50.82 v -306.6 h 50.82 v 34.44 c 15.55,-20.58 38.64,-39.06 75.18,-39.06 z m -377.57,4.62 h 50.82 v 125.16 c 0,34.44 20.57,55.02 49.98,55.02 30.23,0 47.45,-19.74 47.45,-54.18 v -126 h 50.82 v 141.12 c 0,51.66 -28.98,85.26 -78.96,85.26 -34.44,0 -55.02,-18.06 -69.29,-39.06 v 34.44 H 2936 v -221.76 z m -104.16,0 h 50.82 v 221.76 h -50.82 v -221.76 z m -2.1,255.78 h 54.6 v 48.3 h -54.6 v -48.3 z m -169.69,-216.3 c -34.44,0 -63.84,28.14 -63.84,70.98 v 0.84 c 0,44.1 28.98,70.97 63.84,70.97 34.02,0 64.27,-28.13 64.27,-70.97 v -0.84 c 0,-42.42 -30.25,-70.98 -64.27,-70.98 z m -12.18,-44.1 c 36.12,0 59.22,18.48 75.61,41.58 v -36.96 h 50.82 v 306.6 h -50.82 v -119.28 c -15.97,20.58 -39.07,39.06 -75.61,39.06 -52.92,0 -102.9,-41.58 -102.9,-115.08 v -0.84 c 0,-73.5 50.82,-115.08 102.9,-115.08 z m -351.12,4.62 h 220.08 v 46.2 h -168.42 v 78.96 h 147.42 v 46.2 h -147.42 v 76.44 h 166.32 v 46.2 h -217.98 v -294 0"/>
      <path id="path16" style="fill:#1f6249;fill-opacity:1;fill-rule:nonzero;stroke:none" d="m 5182.11,2525.23 h 50.82 v 125.16 c 0,34.44 20.59,55.02 49.98,55.02 30.24,0 47.46,-19.74 47.46,-54.18 v -126 h 50.82 v 141.12 c 0,51.66 -28.97,85.26 -78.95,85.26 -34.45,0 -55.02,-18.06 -69.31,-39.06 v 34.43 h -50.82 v -221.75 z m -203.68,126.42 c 4.61,34.44 26.45,58.38 57.54,58.38 33.59,0 52.91,-25.62 56.28,-58.38 h -113.82 z m 63.42,-131.46 c 40.73,0 69.71,16.38 90.71,41.58 l -29.82,26.46 c -17.63,-17.23 -35.28,-26.46 -60.05,-26.46 -32.77,0 -58.38,20.16 -63.85,56.28 h 162.97 c 0.41,5.04 0.84,9.66 0.84,14.28 0,63.83 -35.71,119.28 -106.27,119.28 -63.42,0 -108.36,-52.09 -108.36,-115.5 v -0.84 c 0,-68.47 49.56,-115.08 113.83,-115.08 z m -269.65,44.52 c -34.44,0 -63.84,28.14 -63.84,70.98 v 0.84 c 0,44.1 28.98,70.98 63.84,70.98 34.02,0 64.26,-28.14 64.26,-70.98 v -0.84 c 0,-42.42 -30.24,-70.98 -64.26,-70.98 z m -12.18,-44.11 c 36.12,0 59.22,18.49 75.61,41.59 v -36.96 h 50.82 v 306.59 h -50.82 v -119.27 c -15.97,20.58 -39.07,39.06 -75.61,39.06 -52.92,0 -102.9,-41.58 -102.9,-115.08 v -0.84 c 0,-73.5 50.82,-115.09 102.9,-115.09 z m -249.05,4.63 h 50.82 v 84.42 c 0,58.8 31.07,87.78 75.59,87.78 h 2.94 v 53.75 c -39.06,1.69 -64.68,-20.99 -78.53,-54.17 v 49.97 h -50.82 v -221.75 z m -99.95,80.22 c 0,-27.72 -25.21,-46.62 -58.8,-46.62 -23.95,0 -42.84,11.76 -42.84,32.76 v 0.84 c 0,21.42 18.89,34.44 50.82,34.44 19.73,0 37.79,-3.78 50.82,-8.82 v -12.6 z m 49.14,-80.22 v 131.46 c 0,59.22 -31.93,93.66 -97.45,93.66 -36.12,0 -60.05,-7.56 -84.42,-18.48 l 13.86,-40.74 c 20.16,8.39 38.64,13.86 63.43,13.86 35.27,0 54.6,-16.8 54.6,-47.46 v -4.2 c -17.23,5.46 -34.45,9.24 -61.32,9.24 -51.66,0 -89.89,-23.52 -89.89,-72.66 v -0.84 c 0,-44.52 36.96,-68.47 78.96,-68.47 33.6,0 56.7,13.87 71.83,31.93 v -27.3 h 50.4 z m -364.56,-5.04 c 52.08,0 93.65,20.99 122.63,45.77 v 123.49 h -125.15 v -44.94 h 75.17 v -55.03 c -18.05,-13.43 -43.26,-22.25 -70.97,-22.25 -60.06,0 -99.97,44.52 -99.97,105 v 0.84 c 0,56.27 41.16,103.73 95.35,103.73 37.37,0 59.63,-12.17 82.31,-31.49 l 32.76,39.06 c -30.24,25.62 -61.73,39.9 -112.97,39.9 -88.63,0 -151.63,-69.72 -151.63,-152.04 v -0.84 c 0,-85.68 60.48,-151.2 152.47,-151.2 z m -385.15,0 c 43.26,0 68.89,17.22 90.72,41.58 l -30.65,30.24 c -15.97,-16.38 -33.61,-27.72 -57.55,-27.72 -39.05,0 -66.36,31.92 -66.36,71.4 v 0.84 c 0,38.63 26.89,70.56 63.84,70.56 25.62,0 42,-11.34 57.54,-27.72 l 31.5,34.02 c -20.57,22.68 -46.62,38.22 -88.62,38.22 -66.36,0 -115.08,-52.93 -115.08,-115.92 v -0.84 c 0,-63.01 48.72,-114.66 114.66,-114.66 z m -207.9,5.04 h 50.82 v 221.75 h -50.82 v -221.75 z m -2.1,255.77 h 54.6 v 48.3 h -54.6 V 2781 Z m -248.2,-255.77 h 50.82 v 125.16 c 0,34.44 20.57,55.02 49.98,55.02 30.23,0 47.45,-19.74 47.45,-54.18 v -126 h 50.82 v 141.12 c 0,51.66 -28.98,85.26 -78.96,85.26 -34.44,0 -55.02,-18.06 -69.29,-39.06 v 34.43 h -50.82 v -221.75 z m -99.96,80.22 c 0,-27.72 -25.21,-46.62 -58.8,-46.62 -23.95,0 -42.85,11.76 -42.85,32.76 v 0.84 c 0,21.42 18.9,34.44 50.82,34.44 19.74,0 37.8,-3.78 50.83,-8.82 v -12.6 z m 49.14,-80.22 v 131.46 c 0,59.22 -31.93,93.66 -97.45,93.66 -36.12,0 -60.05,-7.56 -84.42,-18.48 l 13.86,-40.74 c 20.16,8.39 38.64,13.86 63.43,13.86 35.27,0 54.6,-16.8 54.6,-47.46 v -4.2 c -17.23,5.46 -34.45,9.24 -61.32,9.24 -51.66,0 -89.89,-23.52 -89.89,-72.66 v -0.84 c 0,-44.52 36.96,-68.47 78.96,-68.47 33.6,0 56.7,13.87 71.83,31.93 v -27.3 h 50.4 z m -282.66,-3.78 c 18.91,0 33.18,4.2 45.78,11.34 v 41.58 c -10.08,-5.05 -20.16,-7.57 -31.49,-7.57 -17.23,0 -27.31,7.99 -27.31,27.72 v 108.79 h 59.64 v 43.67 h -59.64 v 60.91 h -50.82 v -60.91 h -28.13 v -43.67 h 28.13 v -116.76 c 0,-48.73 26.47,-65.1 63.84,-65.1 z m -230.16,42.84 c -39.48,0 -67.62,32.76 -67.62,71.4 v 0.84 c 0,38.63 26.04,70.56 66.78,70.56 39.91,0 68.04,-32.34 68.04,-71.4 v -0.84 c 0,-38.22 -26.03,-70.56 -67.2,-70.56 z m -0.84,-44.1 c 68.46,0 118.86,52.5 118.86,115.5 v 0.84 c 0,63.42 -49.98,115.08 -118.02,115.08 -68.04,0 -118.44,-52.5 -118.44,-115.92 v -0.84 c 0,-63.01 49.98,-114.66 117.6,-114.66 z m -340.2,50.81 v 80.65 h 81.9 c 40.74,0 60.48,-14.7 60.48,-39.48 v -0.84 c 0,-26.46 -21.42,-40.33 -56.7,-40.33 h -85.68 z m 0,124.32 v 78.13 h 74.34 c 33.18,0 51.66,-14.28 51.66,-37.38 v -0.84 c 0,-26.88 -22.26,-39.91 -55.44,-39.91 h -70.56 z m -50.82,-170.09 h 136.08 c 65.52,0 108.78,28.14 108.78,80.64 v 0.84 c 0,39.9 -23.94,59.64 -58.38,71.4 21.84,11.34 42,30.24 42,65.52 v 0.84 c 0,19.74 -6.72,35.69 -19.74,48.72 -16.8,16.8 -43.26,26.04 -76.86,26.04 h -131.88 v -294 0"/>
      <path id="path18" style="fill:#1f6249;fill-opacity:1;fill-rule:nonzero;stroke:none" d="m 3285.42,3029.23 h 50.82 v 306.6 h -50.82 v -306.6 z m -96.59,80.22 c 0,-27.72 -25.2,-46.63 -58.8,-46.63 -23.94,0 -42.83,11.77 -42.83,32.77 v 0.84 c 0,21.42 18.89,34.44 50.81,34.44 19.74,0 37.8,-3.78 50.82,-8.82 v -12.6 z m 49.14,-80.22 v 131.46 c 0,59.22 -31.92,93.65 -97.43,93.65 -36.13,0 -60.07,-7.55 -84.43,-18.47 l 13.86,-40.74 c 20.17,8.4 38.64,13.86 63.42,13.86 35.28,0 54.6,-16.8 54.6,-47.46 v -4.2 c -17.22,5.46 -34.44,9.24 -61.32,9.24 -51.66,0 -89.87,-23.52 -89.87,-72.66 v -0.84 c 0,-44.52 36.95,-68.46 78.95,-68.46 33.61,0 56.7,13.85 71.82,31.92 v -27.3 h 50.4 z m -370.86,-68.46 c 35.7,0 55.44,16.8 73.09,62.16 l 88.19,228.05 h -52.92 l -57.54,-164.63 -63,164.63 h -54.18 l 92.4,-221.75 c -8.39,-19.32 -17.22,-25.62 -31.5,-25.62 -10.5,0 -20.58,3.36 -29.81,8.4 l -17.23,-37.8 c 15.55,-8.4 31.08,-13.44 52.5,-13.44 z m -190.67,107.52 c -39.49,0 -67.63,32.76 -67.63,71.4 v 0.84 c 0,38.64 26.04,70.56 66.79,70.56 39.89,0 68.03,-32.34 68.03,-71.4 v -0.84 c 0,-38.22 -26.04,-70.56 -67.19,-70.56 z m -0.84,-44.1 c 68.45,0 118.85,52.5 118.85,115.5 v 0.84 c 0,63.42 -49.98,115.08 -118.01,115.08 -68.05,0 -118.45,-52.5 -118.45,-115.92 v -0.84 c 0,-63 49.98,-114.66 117.61,-114.66 z m -327.19,153.3 v 98.69 h 75.18 c 38.22,0 60.9,-17.21 60.9,-48.71 v -0.84 c 0,-29.83 -23.52,-49.14 -60.48,-49.14 h -75.6 z m -51.66,-148.26 h 51.66 v 102.48 h 64.68 l 72.24,-102.48 h 60.9 l -79.38,111.3 c 41.16,11.76 70.14,40.74 70.14,89.04 v 0.84 c 0,25.62 -8.82,47.46 -24.36,63.42 -18.9,18.48 -47.88,29.4 -84.84,29.4 h -131.04 v -294 0"/>
      <path id="path20" style="fill:none;stroke:#1f6249;stroke-width:20;stroke-linecap:butt;stroke-linejoin:miter;stroke-miterlimit:4;stroke-dasharray:none;stroke-opacity:1" d="M 2022.61,3502.82 V 1793.59"/>
      <path id="path22" style="fill:#1f6249;fill-opacity:1;fill-rule:nonzero;stroke:none" d="m 1255.81,2702.66 c -4.95,-14.82 -18.13,-27.18 -25.55,-41.19 -18.13,-34.6 -22.24,-74.99 -26.36,-115.37 l 1.65,-1.64 c 13.18,34.61 42.85,70.05 79.11,82.41 v -6.6 c -23.08,-23.89 -20.6,-59.32 -52.75,-79.92 -51.91,-23.07 -45.31,-83.23 -61.8,-127.74 l -10.71,-34.6 c 28.02,16.48 57.68,37.08 89.82,46.96 25.54,6.6 50.26,14.03 78.28,16.48 6.59,24.72 29.66,46.98 54.38,55.23 11.54,3.29 24.72,2.46 34.62,9.05 3.29,-5.76 -2.48,-11.53 -3.3,-17.3 -8.24,-19.78 -27.2,-32.96 -44.5,-42.03 l 1.65,-1.66 c 33.79,2.49 68.39,1.66 100.53,9.08 5.76,0.83 7.42,-4.13 7.42,-9.08 l -0.83,-4.92 c -105.47,-18.14 -220.84,-4.13 -303.24,-77.47 -35.44,-28.85 -66.74,-66.75 -85.7,-105.47 -1.64,-2.47 -4.12,0 -5.76,1.63 29.66,74.99 72.5,145.04 86.52,226.62 12.36,43.67 -40.38,68.4 -34.62,112.9 0.83,15.65 -3.29,33.77 3.3,46.96 10.72,4.94 4.95,-9.88 9.07,-14.83 18.96,-22.25 27.19,-48.61 32.13,-76.63 l 4.95,4.93 c 1.66,35.45 22.26,74.17 -2.47,105.49 -1.65,4.94 4.13,7.41 7.42,9.88 11.53,-0.82 9.88,-14 18.13,-19.77 13.18,17.3 21.42,37.08 37.08,52.73 4.12,-0.83 10.7,2.48 11.53,-4.13 v 0"/>
      <path id="path24" style="fill:#1f6249;fill-opacity:1;fill-rule:nonzero;stroke:none" d="m 1496.42,2340.11 c 32.14,16.48 76.65,33.78 112.9,14.82 -0.83,-9.06 -9.07,-14.82 -12.37,-22.24 5.77,-4.12 17.32,0 19.77,-6.6 -11.51,-27.19 -39.54,-38.72 -65.91,-42.02 -51.09,-5.77 -90.65,20.6 -132.67,33.78 48.62,-55.2 128.55,-98.88 136.79,-174.69 -8.24,-7.41 -13.19,4.95 -19.77,2.48 0.82,-10.71 5.76,-27.2 0,-39.56 -11.54,0.83 -18.96,10.71 -27.2,17.3 -2.48,-5.76 1.65,-18.95 -2.48,-22.24 -70.04,29.67 -48.6,111.25 -79.1,163.15 -9.88,10.72 -9.06,26.38 -22.24,34.61 9.88,-69.21 7.41,-148.32 -53.56,-196.12 -13.19,0.82 -6.6,17.3 -12.36,25.55 -7.42,-1.65 -10.72,-9.89 -18.96,-8.25 -6.6,21.43 -0.82,44.51 4.12,65.1 23.08,44.51 93.94,89.83 44.5,143.39 -29.66,25.54 -75.82,36.26 -112.07,18.12 -21.43,-7.41 -41.2,-25.54 -55.21,-45.32 3.3,-4.95 9.06,-3.29 14.83,-2.47 12.37,-2.48 29.67,-0.82 34.61,-12.35 -43.66,-4.12 -81.57,-45.33 -98.89,-83.23 -7.41,-28.01 -11.53,-58.51 -4.11,-88.17 -8.25,-3.31 -16.49,3.29 -24.72,4.93 -30.49,67.58 -7.42,143.39 33.78,198.6 l 23.9,19.78 5.78,-13.19 c 36.25,32.97 80.74,53.57 131.84,46.97 60.14,-9.07 112.88,-62.63 178.8,-32.13 v 0"/>
      <path id="path26" style="fill:#1f6249;fill-opacity:1;fill-rule:nonzero;stroke:none" d="m 1118.19,2280.77 c -7.41,-26.36 -22.24,-48.61 -22.24,-77.45 -0.82,-28.84 7.42,-54.4 14.83,-79.94 -13.19,-1.64 -30.49,-2.47 -42.03,4.95 -4.11,58.5 4.95,113.72 46.98,152.44 h 2.46 v 0"/>
      <path id="path28" style="fill:#1f6249;fill-opacity:1;fill-rule:nonzero;stroke:none" d="m 1222.03,2236.28 c 23.89,-65.92 -73.34,-126.9 -0.83,-182.11 l 2.48,1.65 c -14.02,26.36 -9.07,64.26 4.94,88.99 h 2.47 c 14.83,-21.43 28.02,-42.85 32.97,-68.4 0.82,-15.65 -4.13,-36.25 9.05,-46.13 3.3,17.3 6.6,37.07 23.08,45.3 4.95,-4.93 -3.3,-9.05 -0.83,-15.64 -2.47,-16.48 3.3,-29.66 13.19,-39.56 18.95,-25.54 53.56,-26.36 81.57,-18.96 16.48,2.48 34.62,8.25 41.21,25.56 h 3.29 c 1.65,-23.9 -23.9,-32.96 -39.55,-47.8 -4.95,-10.71 -16.48,-24.72 -28.01,-27.19 -59.34,2.47 -98.88,52.73 -158.22,53.56 -44.49,-4.96 -80.74,15.65 -105.47,48.62 -0.83,1.65 2.47,4.94 4.12,4.11 20.61,-10.7 45.32,-9.06 70.04,-9.06 1.64,15.66 -10.71,28.84 -13.18,44.51 -9.9,34.6 -22.25,78.28 2.47,109.59 12.35,18.11 37.08,26.37 46.96,45.32 7.42,0.83 4.95,-8.25 8.25,-12.36 v 0"/>
      <path id="path30" style="fill:#1f6249;fill-opacity:1;fill-rule:nonzero;stroke:none" d="m 778.699,2198.36 c 20.602,-17.3 46.145,-22.23 70.864,-29.65 11.542,-0.82 22.25,-2.47 31.32,0.82 -7.422,9.06 -11.543,19.78 -12.352,32.14 6.582,14.84 16.481,-10.71 26.364,-9.88 41.199,-12.37 86.515,-18.14 131.015,-18.96 -14.01,7.41 -27.199,14.83 -41.199,21.42 -42.852,18.14 -108.77,48.62 -149.148,4.11 l -4.954,4.13 c 4.121,13.19 13.196,27.2 24.735,35.44 -28.02,-3.3 -60.164,-13.19 -76.645,-39.57 z m -34.605,187.89 c -27.192,4.94 -50.27,22.24 -78.281,18.95 2.468,-59.33 24.718,-110.41 56.847,-157.39 11.543,-12.36 21.434,-29.67 37.91,-34.6 28.844,30.48 62.633,46.95 103.016,49.44 -7.426,14 -9.902,30.48 -15.652,45.32 l 1.629,4.12 c 26.378,-17.3 50.273,-40.38 80.757,-47.8 -54.379,52.74 -117.84,97.24 -186.226,121.96 z m 262.036,515.02 c -23.067,-4.12 -45.317,-11.56 -69.216,-12.38 16.481,-6.57 32.141,-14 45.316,-28.82 1.661,-8.25 9.075,-15.66 4.942,-23.91 -25.539,9.9 -52.719,14 -72.5,37.91 l -22.25,-48.61 c 10.699,-31.32 25.551,-61.8 37.898,-89.83 18.121,21.43 37.082,41.19 58.504,56.86 43.676,17.3 12.366,65.1 18.956,99.71 l -1.65,9.07 z m -304.892,630.35 c 0,-14.83 4.121,-29.68 0,-42.85 l 1.653,-1.65 c 19.769,15.65 38.73,37.08 65.922,37.9 3.292,-18.13 -1.649,-39.56 -1.649,-57.68 14.008,4.13 28.016,16.48 44.496,14.83 -0.82,-87.32 -61.797,-158.18 -130.195,-209.27 -20.602,-20.6 -31.305,-47.79 -24.723,-79.11 13.192,-56.86 71.699,-92.29 103,-141.73 46.153,-64.27 84.883,-131.02 119.492,-199.42 31.309,31.32 11.528,84.06 5.778,121.96 -27.199,23.9 -52.75,51.09 -61.809,84.04 3.301,3.31 9.059,4.13 13.188,1.66 12.347,-26.37 38.722,-51.91 61.8,-70.04 10.7,4.12 18.954,11.54 27.192,20.6 4.937,0.82 9.07,-0.82 9.89,-4.94 v -5.78 l -27.203,-31.3 c -0.82,-19.79 0.821,-37.91 5.782,-54.39 10.699,15.65 17.293,42.85 39.543,53.56 9.898,4.12 21.429,10.71 30.496,9.89 -5.782,-28.02 -29.668,-48.63 -49.438,-68.4 23.891,0 47.777,5.78 70.037,14.02 12.36,18.95 9.06,46.96 14.82,70.04 14.02,54.38 51.1,119.48 14.02,175.51 -68.396,65.09 -162.338,134.32 -159.037,236.5 2.48,2.47 1.648,6.59 4.941,8.24 l 30.489,-18.96 c 3.3,20.61 0.82,43.65 9.89,62.61 18.129,-2.47 33.782,-15.66 48.61,-28 7.429,11.52 3.308,29.63 11.547,42.83 100.52,-37.07 103.82,-149.95 103.82,-245.53 0.82,-31.32 -9.06,-60.98 -6.6,-89 51.11,68.4 37.91,163.98 83.23,234.02 23.9,43.68 64.28,84.03 112.89,93.91 l 2.47,-2.48 c -1.65,-15.65 -4.12,-32.93 -5.76,-47.75 19.78,3.29 37.9,16.47 60.98,15.65 5.76,-17.3 -4.94,-35.43 -9.89,-51.91 16.48,3.29 35.43,4.94 51.91,9.89 8.24,-24.72 -9.06,-46.15 -23.07,-65.1 -68.39,-94.76 -190.35,-86.53 -248.04,-191.18 h 4.96 c 83.22,60.15 210.12,107.95 306.53,42.85 l 4.94,-7.41 c -9.88,-11.54 -22.24,-19.77 -35.43,-24.72 v -2.48 c 15.65,-11.53 33.79,-24.72 41.2,-42.85 -3.29,-12.36 -18.95,-11.53 -28.84,-15.65 -8.24,-0.83 -18.13,2.47 -24.72,-3.3 13.19,-14.01 33.79,-28.01 32.13,-48.61 -49.44,-24.72 -108.77,-6.6 -153.26,18.95 -42.84,25.54 -84.05,70.04 -138.44,52.73 -62.63,-32.12 -70.87,-104.64 -77.45,-168.92 l 2.46,-2.47 c 33.79,14 79.11,16.48 94.76,58.51 9.07,14 19.78,32.13 36.27,37.9 17.3,0 34.61,6.59 51.91,1.65 v -3.3 c -19.78,-4.12 -32.95,-24.73 -47.8,-34.61 -10.71,-8.24 -26.36,-9.88 -33.78,-21.43 36.26,5.78 66.75,30.49 108.77,23.91 18.14,-4.95 37.91,-5.77 53.56,-14.84 l -0.82,-4.12 c -38.73,-6.59 -74.16,-28.01 -117.01,-15.65 -14.83,3.28 -28.84,-1.65 -41.2,-7.42 22.25,-9.06 50.26,-4.94 71.68,-15.65 10.73,-4.95 19.78,-14.01 32.15,-14.84 l -4.12,-4.12 c -32.14,-0.82 -67.58,-11.53 -93.94,9.06 -12.37,8.25 -27.2,19.78 -43.68,10.72 l -70.87,-25.56 c -1.64,-28 -6.58,-62.62 4.12,-86.5 90.65,59.32 211.79,82.4 322.2,60.97 24.72,-4.12 56.85,-7.41 74.16,15.66 31.31,43.66 32.13,100.53 60.98,145.85 18.14,31.31 43.67,68.39 81.58,79.1 7.41,-12.36 -1.64,-30.49 0,-44.5 18.13,6.6 35.44,23.9 57.68,24.73 1.65,-18.13 -4.94,-35.43 -10.72,-51.92 l 2.48,-1.65 c 15.65,1.65 28.84,13.19 46.14,9.07 -2.46,-27.2 -18.12,-51.09 -31.31,-74.16 -43.67,-74.99 -125.25,-106.3 -201.88,-122.78 61.8,-26.37 143.37,10.71 208.47,-17.3 37.91,-14.84 80.76,-32.16 103,-71.71 0,-12.34 -14.82,-5.76 -22.24,-9.05 -6.6,-0.83 -15.66,2.47 -20.6,-3.29 15.66,-18.96 29.66,-39.56 33.78,-61.82 -18.12,-7.41 -38.73,0.82 -56.03,0.82 4.12,-14 11.53,-28.83 11.53,-45.31 l -3.29,-3.29 c -54.4,10.71 -103.83,32.96 -143.38,79.1 -32.14,39.55 -66.75,86.53 -114.54,104.65 14,-18.12 32.96,-37.08 43.67,-59.33 23.89,-58.5 50.27,-139.25 14.02,-201.05 -16.49,-19.79 -28.85,-40.38 -50.27,-54.4 -14.02,-3.29 -9.89,13.2 -12.36,21.43 -0.83,4.95 1.64,10.72 -1.66,14 -15.65,-10.71 -29.66,-25.53 -48.61,-28 -5.77,7.41 -4.95,18.95 -4.95,29.66 1.66,11.54 3.3,22.25 6.6,32.95 -14.01,-4.11 -28.84,-16.47 -44.5,-14 -7.42,65.1 40.38,111.24 69.22,163.16 0.82,5.76 7.42,11.53 9.06,18.12 8.24,20.61 7.42,49.44 -6.59,66.76 -47.79,60.14 -133.5,51.09 -201.05,42.84 -58.51,-6.59 -108.79,-34.61 -159.05,-60.16 l -9.88,-9.88 c 7.41,-58.52 26.36,-112.07 43.66,-165.63 36.26,-94.76 53.56,-215.89 11.54,-313.13 -18.12,-42.85 -25.54,-89.82 -31.31,-137.61 -9.89,0.83 -13.19,12.37 -18.13,18.95 -41.2,63.46 -18.12,149.15 -4.94,218.36 5.76,11.54 -0.82,22.26 -1.65,33.8 2.47,3.29 7.41,0.82 9.89,-0.83 18.13,-21.43 29.66,-45.33 24.72,-76.63 -1.65,-23.9 -12.36,-43.69 -14.84,-66.75 9.9,-2.47 9.07,10.71 14.02,16.48 42.02,84.05 26.36,194.48 -2.48,280.17 -17.3,58.5 -42.02,115.36 -54.38,176.35 -27.198,-18.96 -58.495,-44.51 -75.808,-72.53 16.481,-45.32 23.071,-94.77 33.789,-142.55 l 2.461,-3.3 c 18.961,16.49 33.788,41.2 59.338,43.68 -2.48,-7.42 -13.19,-13.19 -16.48,-20.6 -38.741,-65.93 -1.66,-145.03 -4.95,-218.38 l -4.12,-59.32 c -5.77,-9.07 -11.53,3.29 -16.475,4.95 -50.274,50.26 -38.731,127.72 -56.032,192.81 -5.781,26.38 -14.023,51.92 -30.492,74.17 -1.66,5.77 6.59,4.94 9.891,3.29 12.348,-4.94 23.07,-15.65 33.769,-25.54 l 1.661,5.76 c -6.59,39.56 -12.36,79.11 -29.68,113.72 -27.18,-38.73 -42.008,-84.87 -45.309,-135.14 9.899,3.29 18.129,14.84 29.668,15.66 0.828,-6.59 -6.59,-9.89 -6.59,-15.66 -10.73,-65.09 35.43,-111.24 46.141,-169.75 -4.117,-4.95 -9.059,1.65 -12.359,3.31 -46.961,46.95 -85.7,98.06 -106.297,156.56 -3.305,9.05 -18.121,14 -14.016,23.88 15.664,-1.64 27.203,-16.48 42.024,-18.11 6.597,60.97 25.55,117 56.039,168.09 -3.301,31.31 -18.129,60.15 -31.309,88.17 h -3.301 C 837.211,2727.39 773.766,2657.35 709.48,2610.39 l 1.653,-1.65 c 42.851,18.94 96.422,13.18 135.14,42.85 -2.468,-20.61 -19.769,-40.38 -37.91,-52.74 -31.312,-16.48 -74.16,-14.02 -110.418,-9.89 -7.414,-1.65 -16.48,-8.24 -18.121,-16.48 -8.242,-10.71 4.938,-17.3 11.539,-21.42 50.258,-21.43 97.223,-52.74 141.719,-89.01 61.813,-53.56 109.609,-121.94 170.578,-171.38 l 9.89,-42.03 c -3.3,-4.95 -7.42,-1.65 -11.54,-0.83 -58.498,53.56 -112.069,107.12 -175.506,148.33 -9.895,6.59 -22.262,7.41 -32.973,13.18 12.364,4.95 32.973,2.47 49.442,1.65 h 7.41 c -4.11,16.48 -25.539,27.2 -38.723,39.55 -42.847,37.91 -91.461,61.81 -140.078,85.71 l -3.301,-2.48 c 0,-21.42 -6.586,-39.55 -5.758,-61.8 7.411,-0.83 9.879,8.25 17.301,12.36 15.66,10.71 38.715,4.12 55.199,0 -0.82,-6.59 -9.062,-1.66 -12.363,-5.77 -15.648,-11.54 -31.297,-26.37 -51.898,-26.37 -5.782,-4.94 -7.418,-11.53 -8.239,-18.13 10.7,-9.89 26.36,-5.77 38.715,-11.53 123.606,-27.2 224.145,-115.36 321.372,-202.72 13.18,-31.3 44.5,-55.2 36.26,-94.76 l -12.36,-1.65 c -70.033,1.65 -163.987,36.26 -212.6,-28.83 -7.406,9.06 4.953,18.12 7.414,28.01 4.129,7.43 13.188,13.19 14.836,21.43 -15.656,4.93 -32.137,6.59 -46.976,13.17 l -46.961,22.26 c -17.301,-18.13 -32.961,-41.2 -46.137,-63.46 8.234,-42.83 -38.742,-70.86 -28.844,-113.71 -0.832,-1.66 -3.301,0 -4.953,-0.83 -9.887,11.55 -8.234,28.86 -16.476,39.56 -27.192,-27.18 -53.563,-55.2 -59.329,-91.46 0,-34.61 0,-70.86 -32.964,-88.17 -4.934,-0.83 -7.415,-7.43 -14,-4.95 -18.137,41.2 9.066,84.06 33.781,117.84 -1.653,0.82 -5.766,1.64 -6.598,-1.65 -40.379,-34.61 -89.816,-53.56 -143.383,-46.16 -10.707,8.25 -32.961,6.61 -32.129,23.91 34.602,45.32 98.063,7.42 142.547,28.84 12.367,1.65 24.723,6.6 32.145,15.66 -25.539,-6.6 -59.328,-5.77 -82.41,6.58 -14,9.9 -26.36,23.9 -25.539,39.56 55.211,20.6 94.765,-55.2 149.964,-11.53 l 25.555,26.37 c -11.527,7.41 -28.84,4.94 -37.082,18.13 22.25,-3.3 41.203,9.88 51.91,28.83 7.422,12.37 18.129,26.38 34.61,24.73 l 41.203,62.62 c -65.09,60.16 -93.934,134.32 -103,216.71 -14.832,12.38 -32.957,-2.47 -49.446,4.95 -43.664,-6.59 -98.875,-4.13 -118.656,-51.08 -4.121,-44.5 45.321,-61.81 70.051,-89.82 43.66,-37.9 74.16,-85.71 60.141,-143.38 -11.536,-1.65 -16.481,12.35 -26.364,15.65 -5.765,-16.48 2.473,-38.73 -7.418,-53.56 -17.297,0 -27.191,22.24 -42.847,23.9 -0.832,-14.02 -2.485,-28.02 -9.895,-38.74 l -9.887,0.82 c -74.98,50.28 -91.46,144.21 -77.46,229.91 2.48,20.6 11.542,38.74 18.128,57.68 -56.031,-35.42 -58.511,-106.29 -64.265,-169.74 -9.067,-54.39 -28.844,-106.3 -71.692,-145.03 -9.89,9.88 -13.195,27.18 -12.363,44.51 -9.887,-4.95 -19.769,-20.6 -31.308,-26.38 -5.774,-3.3 -14.008,-9.89 -19.782,-5.77 -9.879,18.12 -4.941,42.02 -11.539,60.15 -11.531,-5.76 -23.89,-17.3 -37.906,-12.35 -10.703,76.62 28.848,145.85 93.949,188.68 42.016,27.21 89.82,40.39 127.719,75 l -1.649,2.47 c -89.812,-32.14 -208.472,-48.62 -299.125,-7.42 -18.128,12.36 -38.7261,26.38 -49.437,45.32 9.8789,14.84 29.6601,15.66 46.148,19.78 -11.539,16.48 -29.6676,28.85 -37.9097,46.98 15.6601,8.23 37.0897,4.11 54.3787,9.06 -4.113,9.89 -11.539,18.12 -13.18,29.66 85.711,21.43 158.211,-28.02 209.313,-93.12 74.16,-68.38 164.801,1.66 247.199,4.95 18.129,2.47 39.551,2.47 57.692,0 4.937,1.65 7.41,6.6 6.582,11.53 -15.653,45.32 -69.211,43.68 -108.762,47.8 -27.211,-4.94 -36.27,-40.38 -64.281,-42.02 -21.43,-1.66 -46.969,1.64 -62.629,13.19 33.781,6.58 65.929,15.66 95.586,31.31 0.832,5.77 -4.946,4.12 -8.239,4.12 -42.847,-5.78 -78.289,6.58 -107.949,32.13 3.305,9.07 17.313,1.65 24.719,6.6 37.898,14 59.332,-24.73 93.949,-25.55 l 2.461,1.65 c -26.359,18.95 -41.199,55.2 -70.867,65.09 3.301,5.78 13.187,3.3 18.961,2.48 23.898,-2.48 50.258,-11.54 60.16,-35.44 4.938,-12.35 4.938,-31.31 21.414,-33.78 37.91,-2.48 73.348,-11.53 105.477,-28.02 l 3.297,4.12 7.417,62.62 c -65.917,31.32 -130.199,65.93 -203.539,77.46 -42.031,2.47 -65.086,-43.66 -106.289,-39.55 0,14.01 6.582,28.02 14.821,39.55 -28.84,4.95 -56.024,-4.11 -84.86,0 -36.258,8.25 -83.23,17.31 -114.543,-6.58 -28.843,-37.08 -66.7458,-67.57 -116.1872,-60.99 3.2891,17.31 23.0586,31.32 36.25,42.03 24.7192,25.54 58.5082,27.2 87.3512,42.85 -5.781,9.07 -13.195,-3.29 -20.601,4.12 -48.6213,1.65 -103.0002,-23.07 -143.383,9.89 2.46875,6.59 12.3633,7.42 18.125,12.36 -5.7617,9.06 -16.48437,17.29 -17.304687,27.19 31.324187,-8.24 66.742187,4.12 96.410187,-11.53 23.0745,-7.42 44.5035,-28.02 70.0505,-25.55 -14.011,12.36 -31.308,19.78 -46.16,32.14 -23.8905,19.77 -39.539,45.32 -64.2616,62.62 5.7617,10.72 23.0625,4.95 34.6015,4.95 55.2231,-14.83 75.8201,-84.05 126.0941,-107.12 60.136,-9.89 123.597,-13.19 182.097,2.47 -36.257,25.54 -77.461,40.37 -114.539,65.09 -38.722,5.78 -77.461,13.19 -107.941,36.26 -2.481,3.3 2.461,6.6 4.113,9.9 10.719,-1.65 23.074,-11.55 35.438,-14.84 11.531,-4.12 25.547,-6.59 36.25,-8.24 l -32.129,31.31 c -3.289,9.07 6.59,5.76 9.886,9.9 18.954,-8.25 32.961,-29.68 51.911,-34.62 4.121,6.59 3.293,20.6 14.007,18.95 12.368,-9.89 -3.293,-23.89 5.762,-34.61 48.621,-36.25 105.481,-51.91 157.395,-78.28 l 0.832,1.65 c -33.797,22.25 -67.586,56.86 -61.805,102.18 2.473,12.36 3.293,24.73 6.578,36.25 h 4.949 c -4.949,-68.39 83.235,-95.58 93.114,-157.38 l 149.98,-65.1 c 4.949,-0.82 6.59,4.12 7.41,7.41 7.418,18.14 -14.816,28.02 -24.718,35.43 -25.543,9.07 -60.153,27.2 -63.446,58.51 12.364,-2.47 25.543,-10.71 40.383,-11.53 23.063,-7.42 46.961,-25.55 56.852,-48.62 4.949,18.95 18.949,38.73 8.242,59.33 -8.242,6.59 -16.481,17.3 -8.242,26.37 12.355,7.41 10.711,-14.83 23.07,-18.13 18.961,18.95 28.836,46.14 32.137,74.16 3.3,0.82 7.422,5.77 11.543,2.47 3.289,-28.01 -10.723,-55.22 -22.258,-79.93 -9.883,-14 -17.301,-29.66 -18.121,-47.79 l 6.586,1.64 c 68.394,49.45 127.718,119.49 164.808,192.84 -49.437,105.46 -109.597,209.29 -196.937,296.64 -13.188,12.36 -34.617,16.48 -51.918,8.24 -14.828,-4.95 -23.074,-21.43 -30.481,-34.61 -26.383,-69.22 -23.91,-170.57 -116.191,-191.17 -7.422,9.06 -3.301,25.53 -4.949,37.9 -13.192,-2.47 -23.075,-17.3 -36.262,-23.07 -8.234,-4.94 -18.129,-11.53 -26.367,-9.89 -4.121,16.48 -4.942,34.61 -6.59,51.91 l -51.09,-16.47 -2.473,4.11 c 11.532,91.47 102.168,175.52 188.704,198.59 32.136,3.31 61.796,18.14 97.238,9.89 l 1.637,1.65 c -20.598,14.01 -44.485,25.55 -70.04,20.6 -46.152,3.29 -91.457,-5.77 -136.789,4.11 -60.148,8.26 -121.121,32.14 -155.738,82.42 15.66,2.47 29.668,9.87 46.149,12.35 -13.192,17.3 -19.774,38.73 -26.368,57.68 23.079,5.77 45.317,-2.47 67.567,-4.95 -1.649,15.67 -11.528,32.15 -10.707,49.45 112.89,4.95 185.41,-88.18 256.269,-169.74 l 37.903,-28.85 c -9.067,80.76 -47.786,162.34 -19.774,248.03 9.891,40.35 34.61,81.56 74.16,102.16 h 6.586 v 0"/>
      <path id="path32" style="fill:#1f6249;fill-opacity:1;fill-rule:nonzero;stroke:none" d="m 1150.33,2102.78 c 7.42,-13.18 13.19,-27.2 16.49,-42.02 -37.09,2.47 -80.76,18.12 -117.84,0.82 -9.07,-3.3 -12.36,-13.18 -14.83,-20.6 h -1.65 c -8.24,18.13 1.65,36.26 10.71,50.27 -7.42,1.66 -18.95,-0.82 -26.36,-5.77 -14.02,-9.9 -24.717,-23.9 -27.198,-39.56 2.481,-79.93 126.898,-75.8 110.418,-160.68 -5.77,-0.82 -9.06,5.77 -14.01,1.66 -3.29,-5.78 1.65,-14.85 -4.95,-18.14 -9.88,-4.12 -21.42,18.96 -23.89,2.48 0.83,-4.94 1.65,-10.72 -4.12,-12.36 -60.967,30.48 -81.569,97.23 -84.877,161.5 l 9.066,36.26 c -21.414,-13.18 -26.367,-41.2 -37.894,-62.62 -6.602,-28.03 -8.25,-53.56 -5.774,-82.4 2.473,-36.27 5.774,-76.65 -10.711,-108.78 l -4.117,-1.64 -9.07,12.35 -14.828,-16.48 c -9.075,6.6 -2.473,21.42 -9.883,29.67 -9.899,-6.59 -18.141,-22.24 -29.668,-23.07 -42.864,103 57.679,168.09 92.277,250.5 -57.68,-32.14 -105.469,-98.06 -177.976,-98.89 -9.903,-1.64 -14.024,8.23 -9.075,15.66 1.653,6.6 8.243,10.72 9.075,18.13 -8.243,4.95 -22.262,-3.29 -27.204,6.59 24.723,32.96 59.332,60.98 100.532,63.45 60.148,0.83 115.371,16.47 163.977,46.97 46.15,14 98.07,9.88 143.38,-3.3 v 0"/>
      <path id="path34" style="fill:#1f6249;fill-opacity:1;fill-rule:nonzero;stroke:none" d="m 126.754,2973.62 c 11.738,11.48 15.973,22.52 13.758,28.45 -6.039,1.23 -17.02,-1.61 -28.758,-13.09 -3.742,-3.64 -6.633,-7.19 -8.832,-10.54 -0.012,0.02 -0.031,0.02 -0.039,0.02 -0.844,3.9 -2.207,8.25 -4.3283,12.97 -6.7539,14.98 -15.7031,22.74 -22.0117,22.71 -3.211,-5.25 -4.3321,-16.53 2.3984,-31.51 2.1719,-4.81 4.5586,-8.81 6.9609,-12.04 -0.0937,-0.14 -0.1406,-0.29 -0.2187,-0.45 -4.1484,0.45 -9.0156,0.41 -14.4922,-0.27 -16.2891,-2.06 -26.3281,-8.35 -28.1406,-14.41 4.082,-4.61 14.5625,-8.97 30.8515,-6.91 5.3399,0.67 9.9415,1.81 13.7891,3.22 0.2266,-0.27 0.4649,-0.53 0.6914,-0.79 -1.6211,-3.78 -3.0312,-8.32 -4.0234,-13.64 -2.9766,-16.14 -0.0391,-27.63 5.1719,-31.2 5.6484,2.5 12.9807,11.16 15.9607,27.3 0.985,5.27 1.281,9.97 1.117,14.06 0.024,0.01 0.063,0 0.086,0.02 0.356,0.14 0.668,0.4 1.032,0.6 3.207,-2.57 7.222,-5.1 12.086,-7.44 14.8,-7.11 26.636,-7.28 31.437,-3.18 -0.906,6.09 -7.348,15.44 -22.148,22.55 -4.731,2.27 -9.114,3.78 -13.028,4.7 -0.019,0.11 -0.019,0.21 -0.035,0.31 3.387,2.12 7.004,4.92 10.715,8.56 z m 35.437,-43.81 -24.464,-5.62 -1.641,-24.01 -26.316,10.57 -18.938,-18.55 -15.3593,23.31 -25.8399,-5.65 2.9688,30.28 -0.3516,-0.11 -22.8164,14.35 19.2578,20.51 h 0.0938 l -13.711,21.99 30,3.76 -0.0625,0.11 6.9414,26.05 25.2383,-12.26 14.9216,19.14 11.617,-25.45 0.391,0.54 26.859,2.21 -2.878,-26.05 21.886,-12.8 -17.683,-20.12 9.886,-22.2 v 0"/>
      <path id="path36" style="fill:#1f6249;fill-opacity:1;fill-rule:nonzero;stroke:none" d="m 190.902,2823.19 c 16.422,0.26 27.09,5.38 29.563,11.2 -3.551,5.04 -13.473,10.52 -29.895,10.27 -5.218,-0.07 -9.757,-0.67 -13.656,-1.59 0.012,0.02 0,0.04 -0.012,0.05 2.075,3.4 4.059,7.51 5.77,12.39 5.41,15.53 4.23,27.31 -0.367,31.62 -5.953,-1.6 -14.512,-9.04 -19.922,-24.54 -1.738,-4.97 -2.75,-9.52 -3.223,-13.52 -0.156,-0.04 -0.308,-0.11 -0.469,-0.18 -2.711,3.18 -6.257,6.5 -10.707,9.77 -13.254,9.71 -24.859,12.03 -30.343,8.88 -0.207,-6.15 4.398,-16.51 17.64,-26.22 4.352,-3.19 8.469,-5.52 12.242,-7.15 -0.023,-0.35 -0.035,-0.69 -0.043,-1.04 -3.781,-1.63 -7.929,-3.97 -12.3,-7.15 -13.254,-9.67 -19.02,-20.03 -17.692,-26.21 5.825,-2.06 17.09,-0.81 30.356,8.86 4.328,3.15 7.793,6.35 10.476,9.44 0.02,-0.02 0.043,-0.04 0.075,-0.04 0.367,-0.14 0.765,-0.18 1.156,-0.27 0.57,-4.08 1.742,-8.69 3.672,-13.72 5.859,-15.33 14.34,-23.59 20.64,-23.92 3.532,5.04 5.285,16.26 -0.582,31.59 -1.871,4.91 -4.019,9.01 -6.23,12.38 0.062,0.09 0.133,0.16 0.191,0.25 3.918,-0.79 8.473,-1.25 13.66,-1.15 z m -4.379,-56.18 -21.628,12.72 -17.704,-16.28 -11.847,25.76 -26.492,-0.46 4.859,27.5 -22.6446,13.66 22.9766,19.94 -0.332,0.16 -6.707,26.11 28.098,1.67 0.05,-0.08 5.161,25.4 24.378,-17.89 0.039,0.12 22.942,14.14 9.902,-26.25 23.996,3.65 -9.058,-26.47 0.652,0.11 21.031,-16.86 -20,-16.92 7.098,-24.36 -26.688,-2.45 -8.082,-22.92 v 0"/>
      <path id="path38" style="fill:#1f6249;fill-opacity:1;fill-rule:nonzero;stroke:none" d="m 339.563,2821.87 c 15.828,-4.34 27.5,-2.42 31.5,2.49 -1.993,5.82 -9.977,13.87 -25.809,18.22 -5.027,1.39 -9.563,2.09 -13.559,2.31 0.008,0 0.008,0.02 0,0.02 2.938,2.7 5.996,6.07 9.008,10.3 9.539,13.39 11.707,25.03 8.5,30.46 -6.16,0.12 -16.461,-4.61 -26,-17.99 -3.062,-4.28 -5.305,-8.36 -6.871,-12.06 -0.172,-0.01 -0.332,-0.03 -0.504,-0.05 -1.707,3.8 -4.187,7.98 -7.547,12.37 -10,13.04 -20.5,18.51 -26.64,17.02 -1.93,-5.85 -0.403,-17.09 9.597,-30.11 3.282,-4.28 6.582,-7.68 9.742,-10.29 -0.105,-0.33 -0.226,-0.65 -0.328,-0.99 -4.082,-0.5 -8.718,-1.59 -13.812,-3.41 -15.438,-5.57 -23.856,-13.91 -24.317,-20.23 5.012,-3.6 16.176,-5.55 31.618,0.02 5.043,1.81 9.254,3.92 12.699,6.13 0.019,-0.02 0.031,-0.06 0.055,-0.06 0.328,-0.24 0.699,-0.39 1.05,-0.59 -0.601,-4.05 -0.761,-8.81 -0.324,-14.19 1.328,-16.36 7.16,-26.67 13.121,-28.75 4.801,3.86 9.617,14.14 8.281,30.5 -0.418,5.23 -1.332,9.77 -2.507,13.63 0.086,0.07 0.168,0.12 0.257,0.18 3.532,-1.85 7.77,-3.57 12.79,-4.93 z m -19.938,-52.71 -17.203,18.29 -21.547,-10.7 -4.16,28.05 -25.57,6.99 12.367,25.03 -17.922,19.45 27.64,12.72 -0.265,0.24 0.867,26.94 27.434,-6.26 0.039,-0.09 12.058,22.94 18.399,-24 0.058,0.1 25.993,7.17 2.148,-27.98 24.07,-3.22 -16.109,-22.88 0.652,-0.07 15.481,-22.07 -23.953,-10.65 v -25.37 l -26.309,5.12 -14.168,-19.75 v 0"/>
      <path id="path40" style="fill:#1f6249;fill-opacity:1;fill-rule:nonzero;stroke:none" d="m 533.555,2823.7 c 15.09,6.46 23.015,15.25 23.093,21.58 -5.187,3.31 -16.449,4.63 -31.546,-1.83 -4.789,-2.06 -8.77,-4.31 -12.039,-6.65 0,0.02 -0.012,0.02 -0.02,0.02 0.629,3.96 0.906,8.5 0.629,13.68 -0.867,16.41 -6.422,26.87 -12.309,29.12 -4.902,-3.74 -10.019,-13.85 -9.152,-30.26 0.289,-5.26 1.07,-9.85 2.16,-13.72 -0.129,-0.11 -0.25,-0.23 -0.367,-0.34 -3.711,1.9 -8.25,3.61 -13.613,4.97 -15.95,3.96 -27.571,1.71 -31.442,-3.29 2.125,-5.77 10.332,-13.61 26.266,-17.57 5.23,-1.3 9.918,-1.91 14.027,-1.98 0.117,-0.33 0.231,-0.65 0.363,-0.98 -2.89,-2.95 -5.843,-6.67 -8.683,-11.27 -8.609,-13.98 -10,-25.75 -6.43,-30.97 6.16,0.3 16.117,5.72 24.731,19.7 2.808,4.55 4.793,8.83 6.109,12.71 0.039,-0.01 0.059,-0.02 0.078,-0.02 0.403,0.03 0.789,0.14 1.184,0.2 2.066,-3.55 4.91,-7.37 8.586,-11.3 11.242,-11.98 22.222,-16.4 28.175,-14.32 1.356,6.01 -1.277,17.05 -12.5,29.02 -3.605,3.83 -7.144,6.82 -10.464,9.1 0.031,0.1 0.054,0.18 0.082,0.3 3.922,0.75 8.3,2.05 13.082,4.1 z m 17.238,-53.64 -24.852,3.58 -10.199,-21.78 -20.73,19.35 -24.348,-10.48 -5.914,27.31 -26.137,4.05 13.7,27.17 -0.372,0.01 -16.086,21.62 25.356,12.2 0.094,-0.06 -4.864,25.47 29.352,-7.34 -0.023,0.14 15.871,21.79 19.113,-20.55 20.828,12.48 1.66,-27.94 0.551,0.35 25.84,-7.62 -12.09,-23.24 15.801,-19.86 -23.774,-12.39 1.223,-24.26 v 0"/>
      <path id="path42" style="fill:#1f6249;fill-opacity:1;fill-rule:nonzero;stroke:none" d="m 660.922,2906.45 c 14.488,7.72 21.652,17.14 21.183,23.44 -5.457,2.88 -16.785,3.23 -31.285,-4.47 -4.597,-2.45 -8.371,-5.05 -11.425,-7.64 0,0.01 -0.008,0.02 -0.024,0.02 0.293,3.99 0.192,8.55 -0.527,13.67 -2.262,16.28 -8.684,26.23 -14.742,27.98 -4.559,-4.15 -8.797,-14.66 -6.547,-30.93 0.738,-5.22 1.898,-9.73 3.308,-13.49 -0.121,-0.14 -0.226,-0.26 -0.332,-0.38 -3.859,1.59 -8.527,2.91 -13.988,3.81 -16.223,2.6 -27.613,-0.64 -31.051,-5.94 2.61,-5.57 11.449,-12.7 27.66,-15.29 5.321,-0.85 10.051,-1.06 14.153,-0.78 0.136,-0.32 0.289,-0.64 0.437,-0.96 -2.621,-3.17 -5.254,-7.12 -7.687,-11.95 -7.403,-14.66 -7.793,-26.52 -3.782,-31.4 6.11,0.81 15.567,7.06 22.961,21.73 2.426,4.77 4.028,9.2 5.02,13.17 0.039,0 0.059,-0.02 0.086,-0.02 0.39,0.07 0.762,0.21 1.152,0.31 2.36,-3.36 5.508,-6.93 9.508,-10.54 12.23,-10.98 23.547,-14.46 29.293,-11.88 0.84,6.11 -2.711,16.89 -14.922,27.86 -3.906,3.51 -7.687,6.19 -11.187,8.18 0.019,0.1 0.039,0.21 0.046,0.3 3.84,1.09 8.102,2.76 12.692,5.2 z m 21.719,-51.99 -25.059,1.46 -8.32,-22.56 -22.289,17.52 -23.379,-12.49 -8.211,26.69 -26.379,1.83 11.348,28.23 -0.372,-0.02 -17.867,20.18 24.231,14.3 0.097,-0.05 -7,24.96 29.86,-4.8 -0.02,0.12 13.961,23.06 20.781,-18.86 19.7,14.2 4.019,-27.69 0.52,0.4 26.402,-5.41 -10.086,-24.19 17.434,-18.44 -22.641,-14.35 3.27,-24.09 v 0"/>
      <path id="path44" style="fill:#1f6249;fill-opacity:1;fill-rule:nonzero;stroke:none" d="m 773.383,2843.22 c 7.379,14.67 7.801,26.49 3.769,31.36 -6.113,-0.79 -15.57,-7.04 -22.957,-21.7 -2.343,-4.65 -3.922,-8.97 -4.933,-12.83 -0.008,0.01 -0.008,0.01 -0.028,0 -2.062,3.43 -4.781,7.09 -8.312,10.86 -11.25,12 -22.238,16.42 -28.188,14.36 -1.332,-6.03 1.27,-17.05 12.5,-29.05 3.598,-3.83 7.161,-6.86 10.489,-9.1 -0.032,-0.18 -0.039,-0.35 -0.059,-0.51 -4.07,-0.93 -8.652,-2.54 -13.621,-4.96 -14.754,-7.23 -22.18,-16.44 -21.941,-22.77 5.351,-3.03 16.671,-3.76 31.414,3.47 4.836,2.38 8.816,4.95 12.004,7.53 0.304,-0.18 0.613,-0.35 0.914,-0.54 -0.313,-4.09 -0.172,-8.84 0.621,-14.2 2.406,-16.23 8.929,-26.13 15.019,-27.82 4.531,4.2 8.649,14.75 6.219,31 -0.762,5.3 -2.02,9.84 -3.5,13.66 0.039,0 0.066,0.02 0.078,0.04 0.293,0.28 0.504,0.6 0.774,0.91 3.867,-1.39 8.5,-2.49 13.835,-3.11 16.325,-1.92 27.575,1.75 30.79,7.19 -2.836,5.47 -11.965,12.23 -28.27,14.13 -5.211,0.62 -9.84,0.62 -13.848,0.23 -0.047,0.1 -0.089,0.19 -0.132,0.27 2.511,3.11 5.019,6.94 7.363,11.58 z m 47.738,-29.93 -21.316,-13.27 6.226,-23.23 -28.32,1.44 -11.891,-23.68 -22.109,17.06 -22.598,-13.73 -7.011,29.61 -0.297,-0.24 -26.242,6.17 11.546,25.68 0.106,0.01 -20.113,16.36 27.171,13.3 -0.101,0.09 -1.899,26.89 27.86,-3.42 7.89,22.97 19.258,-20.3 0.199,0.62 24.692,10.81 5.711,-25.56 24.879,-5.02 -10.211,-24.78 16.57,-17.78 v 0"/>
      <path id="path46" style="fill:#1f6249;fill-opacity:1;fill-rule:nonzero;stroke:none" d="m 652.02,2767 c 11.863,11.36 16.203,22.36 14.035,28.3 -6.02,1.29 -17.024,-1.43 -28.891,-12.77 -3.762,-3.62 -6.691,-7.15 -8.934,-10.46 0,0.01 -0.007,0.01 -0.027,0 -0.801,3.93 -2.129,8.29 -4.211,13.03 -6.59,15.06 -15.472,22.9 -21.762,22.95 -3.265,-5.23 -4.496,-16.49 2.071,-31.56 2.109,-4.8 4.465,-8.85 6.844,-12.08 -0.09,-0.16 -0.165,-0.32 -0.231,-0.46 -4.141,0.49 -8.988,0.49 -14.492,-0.12 -16.32,-1.88 -26.399,-8.08 -28.277,-14.13 4.019,-4.63 14.449,-9.11 30.746,-7.22 5.363,0.61 9.972,1.71 13.851,3.07 0.211,-0.25 0.449,-0.53 0.68,-0.8 -1.668,-3.77 -3.129,-8.27 -4.18,-13.59 -3.148,-16.1 -0.32,-27.62 4.86,-31.25 5.668,2.44 13.089,11.02 16.23,27.14 1.051,5.26 1.383,9.95 1.262,14.05 0.047,-0.01 0.066,-0.01 0.09,0 0.359,0.17 0.679,0.41 1.043,0.62 3.168,-2.62 7.175,-5.2 11.996,-7.58 14.742,-7.25 26.57,-7.57 31.422,-3.51 -0.852,6.11 -7.204,15.53 -21.911,22.77 -4.714,2.33 -9.082,3.88 -12.996,4.86 -0.008,0.1 -0.015,0.2 -0.027,0.29 3.414,2.09 7.051,4.86 10.809,8.45 z m 34.992,-44.16 -24.532,-5.39 -1.91,-23.97 -26.183,10.84 -19.133,-18.36 -15.133,23.46 -25.887,-5.37 3.278,30.25 -0.348,-0.12 -22.672,14.57 19.457,20.34 0.114,-0.02 -13.493,22.15 30.051,3.44 -0.058,0.13 7.203,25.96 25.105,-12.54 15.121,19.02 11.36,-25.56 0.398,0.52 26.883,1.93 -3.16,-26.01 21.769,-13.04 -17.898,-19.94 9.668,-22.29 v 0"/>
      <path id="path48" style="fill:#1f6249;fill-opacity:1;fill-rule:nonzero;stroke:none" d="m 832.363,3152.76 c 10.547,12.59 13.657,23.99 10.86,29.65 -6.133,0.63 -16.782,-3.28 -27.321,-15.84 -3.347,-4.01 -5.867,-7.84 -7.738,-11.39 0,0.02 -0.012,0.02 -0.027,0.02 -1.223,3.81 -3.024,7.99 -5.602,12.48 -8.215,14.25 -17.89,21.06 -24.152,20.44 -2.68,-5.57 -2.668,-16.9 5.508,-31.15 2.632,-4.54 5.402,-8.31 8.121,-11.26 -0.071,-0.17 -0.117,-0.34 -0.172,-0.49 -4.168,0.03 -8.996,-0.49 -14.391,-1.69 -16.019,-3.66 -25.371,-10.93 -26.574,-17.15 4.508,-4.17 15.363,-7.47 31.367,-3.81 5.246,1.2 9.723,2.79 13.422,4.57 0.238,-0.23 0.496,-0.48 0.766,-0.73 -1.25,-3.92 -2.196,-8.56 -2.668,-13.95 -1.367,-16.36 2.715,-27.5 8.25,-30.53 5.371,3.03 11.801,12.37 13.168,28.73 0.465,5.34 0.285,10.05 -0.285,14.11 0.046,0 0.066,0 0.085,0.02 0.34,0.21 0.629,0.48 0.961,0.72 3.454,-2.25 7.704,-4.38 12.758,-6.22 15.449,-5.61 27.242,-4.61 31.614,-0.05 -1.508,5.98 -8.836,14.65 -24.274,20.23 -4.926,1.81 -9.437,2.88 -13.437,3.42 -0.008,0.09 -0.028,0.2 -0.047,0.28 3.148,2.45 6.468,5.6 9.808,9.59 z m 39.61,-40.07 -23.789,-8.04 0.726,-24.04 -27.226,7.91 -17,-20.33 -17.606,21.65 -25.152,-8.17 -0.039,30.43 -0.332,-0.16 -24.133,12 17.121,22.34 h 0.102 l -15.832,20.54 29.5,6.71 -0.071,0.11 4.313,26.61 26.328,-9.72 12.937,20.55 14.102,-24.15 0.344,0.56 26.5,4.85 -0.293,-26.2 23.07,-10.59 -15.621,-21.77 12.051,-21.09 v 0"/>
      <path id="path50" style="fill:#1f6249;fill-opacity:1;fill-rule:nonzero;stroke:none" d="m 956.012,3104.68 c -0.641,16.41 -5.977,26.95 -11.852,29.25 -4.965,-3.64 -10.23,-13.68 -9.617,-30.08 0.207,-5.21 0.91,-9.75 1.906,-13.63 -0.019,0.01 -0.027,0 -0.039,-0.01 -3.457,2 -7.597,3.9 -12.527,5.5 -15.641,5.05 -27.399,3.59 -31.621,-1.06 1.761,-5.94 9.359,-14.33 25,-19.39 5,-1.62 9.578,-2.54 13.566,-2.9 0.074,-0.17 0.145,-0.32 0.203,-0.48 -3.109,-2.77 -6.328,-6.4 -9.515,-10.92 -9.438,-13.45 -11.473,-25.11 -8.196,-30.53 6.133,-0.07 16.41,4.77 25.801,18.21 3.09,4.41 5.344,8.61 6.891,12.41 0.332,-0.01 0.703,-0.02 1.051,-0.02 1.703,-3.75 4.121,-7.83 7.402,-12.14 9.961,-13.04 20.457,-18.57 26.598,-17.09 1.941,5.84 0.453,17.09 -9.532,30.14 -3.238,4.27 -6.531,7.63 -9.679,10.26 0.035,0.03 0.05,0.05 0.05,0.08 0.118,0.38 0.149,0.77 0.231,1.18 4.066,0.64 8.648,1.92 13.637,3.95 15.21,6.22 23.285,14.87 23.464,21.18 -5.14,3.42 -16.382,4.91 -31.574,-1.29 -4.867,-1.98 -8.93,-4.21 -12.262,-6.5 -0.078,0.07 -0.156,0.14 -0.226,0.18 0.703,3.94 1.039,8.49 0.84,13.7 z m 56.258,-3.11 -12.24,-21.93 16.68,-17.34 -25.48,-12.41 1.04,-26.49 -27.586,4.24 -13.161,-22.95 -20.46,22.52 -0.129,-0.33 -25.954,-7.29 -2.3,28.04 0.086,0.07 -25.524,4.6 17.348,24.77 -0.125,0.04 -14.66,22.62 26.035,10.47 -4.199,23.92 26.66,-8.45 -0.117,0.65 16.379,21.38 17.371,-19.61 24.199,7.64 3.051,-26.62 23.086,-7.54 v 0"/>
      <path id="path52" style="fill:#1f6249;fill-opacity:1;fill-rule:nonzero;stroke:none" d="m 1154.38,2757.33 c -4.66,15.74 -12.45,24.65 -18.71,25.43 -3.91,-4.75 -6.53,-15.79 -1.89,-31.52 1.48,-5 3.28,-9.23 5.21,-12.76 -0.02,0.02 -0.03,0 -0.04,0 -3.85,1.1 -8.33,1.9 -13.49,2.23 -16.41,1.05 -27.44,-3.28 -30.39,-8.82 3.16,-5.32 12.6,-11.57 29.02,-12.63 5.22,-0.33 9.9,-0.09 13.86,0.54 0.1,-0.15 0.21,-0.28 0.31,-0.41 -2.34,-3.46 -4.56,-7.76 -6.54,-12.93 -5.82,-15.37 -4.92,-27.16 -0.4,-31.62 5.95,1.46 14.73,8.68 20.51,24.03 1.9,5.04 3.05,9.65 3.61,13.71 0.33,0.08 0.69,0.15 1.03,0.24 2.57,-3.22 5.92,-6.57 10.16,-9.93 12.87,-10.19 24.42,-12.96 30,-10.01 0.44,6.15 -3.78,16.68 -16.67,26.85 -4.2,3.34 -8.22,5.8 -11.91,7.57 0.02,0.03 0.03,0.06 0.03,0.08 0.03,0.41 -0.05,0.78 -0.07,1.2 3.79,1.63 7.91,4.01 12.24,7.19 13.2,9.78 18.9,20.17 17.52,26.32 -5.82,2.04 -17.1,0.73 -30.28,-9.04 -4.24,-3.12 -7.62,-6.28 -10.27,-9.31 -0.11,0.04 -0.2,0.08 -0.27,0.11 -0.31,3.99 -1.1,8.48 -2.57,13.48 z m 55.29,10.86 -6.45,-24.28 20.44,-12.67 -21.64,-18.33 7.55,-25.41 -27.8,-2.69 -7.08,-25.49 -25.38,16.8 -0.05,-0.37 -23.35,-13.47 -9.15,26.61 0.06,0.1 -25.86,-1.85 10.7,28.3 -0.14,-0.01 -19.78,18.3 22.66,16.58 -9.98,22.15 27.93,-1.61 -0.28,0.59 10.6,24.77 21.67,-14.72 21.57,13.36 9.51,-25.04 24.25,-1.62 v 0"/>
      <path id="path54" style="fill:#1f6249;fill-opacity:1;fill-rule:nonzero;stroke:none" d="m 1294.53,2807.46 c -1.74,16.34 -7.79,26.5 -13.81,28.39 -4.7,-3.96 -9.27,-14.34 -7.55,-30.65 0.56,-5.18 1.55,-9.67 2.82,-13.48 -0.01,0.01 -0.03,0 -0.04,-0.01 -3.59,1.77 -7.85,3.37 -12.87,4.63 -15.95,4 -27.58,1.75 -31.48,-3.18 2.15,-5.8 10.3,-13.66 26.26,-17.67 5.08,-1.26 9.72,-1.87 13.73,-1.97 0.07,-0.16 0.15,-0.31 0.23,-0.47 -2.92,-2.97 -5.89,-6.8 -8.76,-11.52 -8.51,-14.07 -9.75,-25.83 -6.11,-31.02 6.11,0.36 16.05,5.86 24.51,19.92 2.79,4.61 4.75,8.94 6.03,12.84 0.33,0 0.7,0 1.05,0.04 1.96,-3.63 4.64,-7.54 8.2,-11.6 10.82,-12.35 21.68,-17.15 27.7,-15.28 1.54,5.98 -0.71,17.1 -11.55,29.44 -3.52,4.04 -7.03,7.18 -10.34,9.59 0.02,0.03 0.05,0.06 0.05,0.07 0.1,0.4 0.08,0.79 0.15,1.19 4.02,0.92 8.5,2.52 13.33,4.87 14.75,7.24 22.22,16.42 21.98,22.71 -5.35,3.07 -16.67,3.82 -31.41,-3.4 -4.73,-2.3 -8.62,-4.81 -11.78,-7.32 -0.1,0.06 -0.18,0.12 -0.25,0.16 0.43,3.98 0.46,8.55 -0.09,13.72 z m 56.34,0.71 -10.73,-22.72 17.82,-16.16 -24.6,-14.13 2.84,-26.34 -27.82,2.36 -11.58,-23.77 -21.92,21.09 -0.12,-0.35 -25.4,-9.03 -4.2,27.83 0.09,0.08 -25.78,2.86 15.64,25.9 -0.14,0.02 -16.14,21.56 25.27,12.22 -5.81,23.59 27.18,-6.63 -0.17,0.64 14.9,22.43 18.66,-18.38 23.62,9.25 4.84,-26.35 23.55,-5.97 v 0"/>
      <path id="path56" style="fill:#1f6249;fill-opacity:1;fill-rule:nonzero;stroke:none" d="m 1688.01,2599.93 c 8.21,14.24 9.31,26.01 5.56,31.09 -6.13,-0.45 -15.94,-6.13 -24.16,-20.33 -2.6,-4.53 -4.44,-8.73 -5.66,-12.56 0,0.03 -0.02,0.02 -0.03,0.02 -1.85,3.55 -4.36,7.35 -7.68,11.32 -10.54,12.62 -21.26,17.65 -27.31,15.97 -1.68,-5.96 0.28,-17.11 10.82,-29.75 3.36,-4.02 6.75,-7.24 9.93,-9.69 -0.04,-0.16 -0.05,-0.33 -0.08,-0.5 -4.12,-0.67 -8.77,-2.02 -13.88,-4.16 -15.14,-6.35 -23.09,-15.13 -23.2,-21.47 5.15,-3.31 16.43,-4.71 31.54,1.67 4.98,2.09 9.11,4.42 12.43,6.82 0.29,-0.18 0.58,-0.4 0.89,-0.58 -0.56,-4.1 -0.7,-8.82 -0.21,-14.2 1.47,-16.37 7.42,-26.63 13.39,-28.66 4.77,3.92 9.5,14.23 8,30.59 -0.46,5.34 -1.45,9.94 -2.71,13.83 0.04,0.02 0.07,0.03 0.09,0.04 0.31,0.27 0.52,0.59 0.81,0.87 3.79,-1.61 8.35,-2.96 13.64,-3.91 16.19,-2.84 27.64,0.18 31.15,5.41 -2.53,5.63 -11.24,12.9 -27.4,15.74 -5.18,0.93 -9.8,1.19 -13.83,1.04 -0.04,0.1 -0.07,0.2 -0.11,0.27 2.69,2.96 5.41,6.64 8.01,11.13 z m 45.95,-32.59 -22.05,-12.05 4.9,-23.55 -28.21,3.07 -13.21,-22.98 -21.1,18.31 -23.36,-12.4 -5.3,29.96 -0.3,-0.22 -25.84,7.66 12.99,24.97 0.11,0.01 -19.15,17.49 27.89,11.71 -0.09,0.1 -0.35,26.94 27.62,-5.01 9.19,22.49 18.07,-21.36 0.24,0.61 25.24,9.36 4.25,-25.84 24.55,-6.45 -11.61,-24.14 15.52,-18.68 v 0"/>
      <path id="path58" style="fill:#1f6249;fill-opacity:1;fill-rule:nonzero;stroke:none" d="m 1663.94,2468.49 c -0.62,16.43 -5.96,26.98 -11.82,29.29 -4.96,-3.64 -10.24,-13.68 -9.65,-30.07 0.2,-5.2 0.88,-9.76 1.88,-13.64 0,0.03 -0.02,0 -0.03,-0.01 -3.46,2.03 -7.6,3.91 -12.52,5.51 -15.64,5.08 -27.39,3.64 -31.63,-0.99 1.75,-5.95 9.34,-14.35 24.98,-19.45 4.99,-1.61 9.58,-2.54 13.57,-2.92 0.06,-0.16 0.13,-0.32 0.2,-0.47 -3.13,-2.76 -6.35,-6.38 -9.54,-10.9 -9.46,-13.44 -11.51,-25.1 -8.23,-30.52 6.12,-0.07 16.41,4.75 25.82,18.18 3.1,4.42 5.35,8.6 6.89,12.38 0.35,0 0.71,-0.02 1.07,-0.01 1.7,-3.76 4.1,-7.83 7.37,-12.14 9.95,-13.06 20.45,-18.6 26.58,-17.15 1.96,5.87 0.47,17.11 -9.49,30.16 -3.23,4.29 -6.52,7.65 -9.66,10.27 0.03,0.04 0.06,0.06 0.07,0.08 0.12,0.39 0.12,0.78 0.22,1.16 4.07,0.66 8.65,1.94 13.63,3.95 15.22,6.21 23.31,14.86 23.5,21.15 -5.14,3.43 -16.37,4.96 -31.57,-1.24 -4.88,-1.97 -8.93,-4.2 -12.26,-6.48 -0.09,0.07 -0.17,0.12 -0.24,0.18 0.7,3.93 1.05,8.49 0.86,13.68 z m 56.24,-3.18 -12.26,-21.91 16.68,-17.34 -25.53,-12.41 1.02,-26.48 -27.6,4.29 -13.18,-22.93 -20.43,22.55 -0.13,-0.33 -25.96,-7.27 -2.28,28.06 0.1,0.06 -25.51,4.63 17.38,24.76 -0.13,0.02 -14.62,22.64 26.05,10.45 -4.18,23.92 26.66,-8.48 -0.12,0.65 16.4,21.35 17.35,-19.62 24.21,7.6 3.01,-26.63 23.07,-7.58 v 0"/>
      <path id="path60" style="fill:#1f6249;fill-opacity:1;fill-rule:nonzero;stroke:none" d="m 1545.47,2533.91 c -0.17,16.41 -5.23,27.12 -11.03,29.57 -5.06,-3.5 -10.6,-13.39 -10.45,-29.8 0.07,-5.2 0.63,-9.77 1.52,-13.68 0,0.03 -0.01,0 -0.03,0 -3.4,2.11 -7.49,4.1 -12.37,5.83 -15.5,5.5 -27.29,4.37 -31.64,-0.15 1.58,-5.99 8.95,-14.59 24.45,-20.1 4.95,-1.74 9.5,-2.8 13.48,-3.28 0.05,-0.16 0.12,-0.32 0.2,-0.47 -3.21,-2.69 -6.53,-6.21 -9.84,-10.65 -9.81,-13.18 -12.17,-24.78 -9.04,-30.29 6.12,-0.22 16.54,4.31 26.31,17.49 3.21,4.34 5.57,8.45 7.2,12.2 0.35,-0.01 0.72,-0.04 1.07,-0.05 1.6,-3.8 3.89,-7.93 7.05,-12.33 9.6,-13.32 19.95,-19.14 26.12,-17.85 2.12,5.82 0.92,17.08 -8.69,30.41 -3.11,4.37 -6.31,7.81 -9.38,10.52 0.03,0.03 0.06,0.05 0.06,0.07 0.15,0.39 0.17,0.77 0.26,1.16 4.08,0.54 8.7,1.71 13.73,3.59 15.39,5.8 23.7,14.22 24.05,20.5 -5.04,3.56 -16.22,5.4 -31.59,-0.39 -4.93,-1.84 -9.04,-3.97 -12.42,-6.16 -0.1,0.08 -0.17,0.14 -0.24,0.18 0.8,3.93 1.27,8.47 1.22,13.68 z m 56.15,-4.68 -12.85,-21.58 16.21,-17.78 -25.85,-11.73 0.32,-26.49 -27.47,5.02 -13.79,-22.58 -19.82,23.09 -0.15,-0.34 -26.13,-6.56 -1.54,28.1 0.1,0.06 -25.38,5.31 18.04,24.29 -0.13,0.04 -14.02,23 26.33,9.76 -3.54,24.02 26.42,-9.18 -0.11,0.65 16.96,20.9 16.82,-20.07 24.41,6.95 2.3,-26.7 22.87,-8.18 v 0"/>
      <path id="path62" style="fill:#1f6249;fill-opacity:1;fill-rule:nonzero;stroke:none" d="m 278.813,2947.08 c 16.199,-2.64 27.597,0.51 31.07,5.81 -2.602,5.59 -11.403,12.74 -27.602,15.4 -5.148,0.85 -9.718,1.07 -13.726,0.86 0.008,0 0,0.02 0,0.03 2.636,2.99 5.316,6.68 7.867,11.18 8.082,14.33 9,26.12 5.238,31.19 -6.137,-0.53 -15.89,-6.32 -23.961,-20.62 -2.578,-4.59 -4.379,-8.89 -5.547,-12.73 -0.172,-0.02 -0.332,-0.07 -0.492,-0.09 -2.097,3.59 -5.019,7.48 -8.816,11.5 -11.321,11.9 -22.34,16.24 -28.281,14.11 -1.309,-6.03 1.398,-17.04 12.707,-28.93 3.722,-3.92 7.355,-6.94 10.781,-9.22 -0.078,-0.32 -0.16,-0.66 -0.231,-1.01 -3.996,-0.92 -8.5,-2.5 -13.355,-4.85 -14.774,-7.17 -22.274,-16.36 -22.055,-22.67 5.356,-3.06 16.672,-3.82 31.434,3.35 4.828,2.33 8.789,4.88 11.984,7.43 0.027,-0.02 0.047,-0.05 0.067,-0.06 0.335,-0.18 0.714,-0.3 1.097,-0.46 -0.172,-4.1 0.172,-8.85 1.172,-14.15 3.059,-16.14 9.938,-25.77 16.09,-27.2 4.359,4.34 8.082,15.07 5.019,31.2 -0.984,5.15 -2.359,9.58 -3.941,13.29 0.078,0.07 0.152,0.13 0.231,0.21 3.71,-1.48 8.109,-2.73 13.25,-3.57 z m -14.274,-54.51 -19.027,16.36 -20.301,-12.9 -7.102,27.45 -26.156,4.25 9.656,26.2 -19.875,17.45 26.149,15.57 -0.309,0.2 -1.972,26.89 27.953,-3.32 0.039,-0.1 9.57,24.09 20.828,-21.93 0.051,0.11 25.09,9.87 5.101,-27.6 24.258,-0.66 -13.597,-24.45 h 0.656 l 17.711,-20.3 -22.68,-13.13 2.672,-25.24 -26.699,2.32 -12.016,-21.13 v 0"/>
      <path id="path64" style="fill:#1f6249;fill-opacity:1;fill-rule:nonzero;stroke:none" d="m 228.984,3090.94 c 16.051,3.47 25.508,10.57 26.805,16.76 -4.465,4.25 -15.266,7.69 -31.316,4.24 -5.086,-1.09 -9.43,-2.55 -13.082,-4.21 -0.02,0 -0.028,0.02 -0.028,0.03 1.371,3.75 2.52,8.16 3.242,13.29 2.266,16.27 -1.164,27.59 -6.523,30.93 -5.527,-2.73 -12.492,-11.68 -14.762,-27.95 -0.726,-5.21 -0.832,-9.86 -0.515,-13.89 -0.153,-0.07 -0.27,-0.16 -0.422,-0.26 -3.274,2.58 -7.41,5.15 -12.41,7.5 -14.891,6.92 -26.731,6.94 -31.493,2.78 0.993,-6.09 7.532,-15.35 22.422,-22.27 4.879,-2.28 9.379,-3.76 13.391,-4.62 0.047,-0.35 0.102,-0.7 0.16,-1.04 -3.379,-2.34 -6.992,-5.43 -10.668,-9.41 -11.133,-12.07 -14.754,-23.36 -12.242,-29.14 6.098,-0.9 16.91,2.5 28.035,14.59 3.645,3.93 6.402,7.73 8.445,11.3 0.02,0 0.047,-0.03 0.067,-0.03 0.41,-0.06 0.801,-0.02 1.203,-0.03 1.352,-3.88 3.387,-8.18 6.258,-12.74 8.75,-13.91 18.683,-20.36 24.922,-19.43 2.48,5.63 2.007,16.96 -6.735,30.87 -2.785,4.43 -5.687,8.06 -8.511,10.93 0.039,0.09 0.086,0.16 0.132,0.27 3.993,0.01 8.551,0.45 13.625,1.53 z m 6.653,-55.95 -23.703,8.27 -14.168,-19.43 -16.645,22.96 -25.91,-5.61 -0.578,27.91 -24.883,8.98 18.652,24.04 -0.351,0.09 -11.668,24.31 27.222,7.11 0.067,-0.06 0.113,25.91 27.406,-12.8 v 0.12 l 19.743,18.37 14.828,-23.84 22.843,8.26 -3.734,-27.72 0.613,0.24 23.918,-12.44 -16.32,-20.51 11.707,-22.49 -25.695,-7.6 -3.457,-24.07 v 0"/>
    </g>
  </g>
</svg>