<?xml version="1.0" encoding="UTF-8" standalone="no"?>
<svg
   xmlns:dc="http://purl.org/dc/elements/1.1/"
   xmlns:cc="http://creativecommons.org/ns#"
   xmlns:rdf="http://www.w3.org/1999/02/22-rdf-syntax-ns#"
   xmlns:svg="http://www.w3.org/2000/svg"
   xmlns="http://www.w3.org/2000/svg"
   viewBox="0 0 233.14667 231.28"
   height="231.28"
   width="233.14667"
   xml:space="preserve"
   id="svg2"
   version="1.1"><metadata
     id="metadata8"><rdf:RDF><cc:Work
         rdf:about=""><dc:format>image/svg+xml</dc:format><dc:type
           rdf:resource="http://purl.org/dc/dcmitype/StillImage" /></cc:Work></rdf:RDF></metadata><defs
     id="defs6" /><g
     transform="matrix(1.3333333,0,0,-1.3333333,0,231.28)"
     id="g10"><g
       transform="scale(0.1)"
       id="g12"><path
         id="path14"
         style="fill:rgba(33, 95, 67, 0.10);fill-opacity:1;fill-rule:nonzero;stroke:none"
         d="m 1255.81,905.594 c -4.95,-14.828 -18.13,-27.188 -25.55,-41.196 -18.13,-34.593 -22.23,-74.984 -26.35,-115.375 l 1.64,-1.64 c 13.18,34.609 42.85,70.058 79.12,82.422 v -6.602 c -23.09,-23.898 -20.61,-59.328 -52.76,-79.922 -51.91,-23.07 -45.31,-83.23 -61.79,-127.742 l -10.72,-34.598 c 28.02,16.481 57.68,37.079 89.82,46.957 25.55,6.59 50.26,14.032 78.28,16.473 6.59,24.731 29.67,46.988 54.38,55.238 11.54,3.289 24.72,2.461 34.62,9.039 3.29,-5.75 -2.48,-11.519 -3.3,-17.289 -8.24,-19.777 -27.2,-32.961 -44.5,-42.027 l 1.65,-1.66 c 33.79,2.488 68.39,1.66 100.53,9.078 5.76,0.832 7.42,-4.129 7.42,-9.078 l -0.83,-4.922 c -105.47,-18.141 -220.84,-4.141 -303.23,-77.48 -35.45,-28.84 -66.75,-66.739 -85.7,-105.469 -1.65,-2.461 -4.13,0 -5.77,1.64 29.66,74.989 72.5,145.039 86.53,226.618 12.35,43.671 -40.39,68.406 -34.63,112.898 0.84,15.645 -3.28,33.777 3.3,46.961 10.72,4.953 4.95,-9.883 9.07,-14.832 18.96,-22.246 27.2,-48.613 32.13,-76.621 l 4.95,4.93 c 1.66,35.441 22.27,74.16 -2.47,105.484 -1.65,4.937 4.13,7.406 7.42,9.879 11.54,-0.82 9.88,-14.004 18.14,-19.766 13.17,17.293 21.41,37.074 37.07,52.723 4.12,-0.82 10.7,2.48 11.53,-4.121 v 0" /><path
         id="path16"
         style="fill:rgba(33, 95, 67, 0.10);fill-opacity:1;fill-rule:nonzero;stroke:none"
         d="m 1496.43,543.039 c 32.13,16.473 76.64,33.781 112.89,14.813 -0.82,-9.051 -9.07,-14.813 -12.37,-22.231 5.77,-4.121 17.33,0 19.77,-6.601 -11.51,-27.188 -39.53,-38.731 -65.91,-42.032 -51.08,-5.758 -90.65,20.614 -132.67,33.793 48.62,-55.199 128.56,-98.89 136.79,-174.691 -8.23,-7.418 -13.19,4.941 -19.77,2.48 0.82,-10.718 5.76,-27.199 0,-39.57 -11.54,0.84 -18.96,10.719 -27.19,17.309 -2.48,-5.758 1.64,-18.95 -2.48,-22.25 -70.04,29.679 -48.61,111.25 -79.1,163.16 -9.89,10.722 -9.07,26.371 -22.25,34.613 9.88,-69.211 7.41,-148.32 -53.55,-196.133 -13.2,0.821 -6.61,17.313 -12.37,25.563 -7.42,-1.653 -10.72,-9.891 -18.96,-8.25 -6.6,21.418 -0.82,44.508 4.12,65.097 23.08,44.512 93.94,89.832 44.5,143.391 -29.66,25.539 -75.82,36.25 -112.07,18.121 -21.43,-7.41 -41.2,-25.539 -55.2,-45.32 3.3,-4.949 9.06,-3.289 14.82,-2.469 12.37,-2.48 29.67,-0.82 34.61,-12.363 -43.65,-4.117 -81.56,-45.321 -98.89,-83.219 -7.41,-28.012 -11.52,-58.52 -4.11,-88.168 -8.25,-3.312 -16.49,3.289 -24.72,4.93 -30.48,67.578 -7.42,143.386 33.78,198.59 l 23.9,19.789 5.78,-13.192 c 36.25,32.973 80.74,53.571 131.84,46.973 60.14,-9.082 112.89,-62.633 178.81,-32.133 v 0" /><path
         id="path18"
         style="fill:rgba(33, 95, 67, 0.10);fill-opacity:1;fill-rule:nonzero;stroke:none"
         d="m 1118.19,483.691 c -7.41,-26.351 -22.23,-48.601 -22.23,-77.441 -0.82,-28.852 7.42,-54.398 14.82,-79.941 -13.18,-1.637 -30.49,-2.469 -42.03,4.953 -4.1,58.5 4.95,113.718 46.98,152.429 h 2.46 v 0" /><path
         id="path20"
         style="fill:rgba(33, 95, 67, 0.10);fill-opacity:1;fill-rule:nonzero;stroke:none"
         d="m 1222.03,439.211 c 23.89,-65.93 -73.34,-126.91 -0.83,-182.109 l 2.48,1.648 c -14.01,26.359 -9.07,64.262 4.94,88.98 h 2.47 c 14.83,-21.421 28.02,-42.851 32.97,-68.39 0.82,-15.649 -4.13,-36.25 9.05,-46.141 3.3,17.313 6.6,37.071 23.08,45.313 4.95,-4.942 -3.3,-9.063 -0.83,-15.641 -2.47,-16.48 3.3,-29.672 13.19,-39.562 18.95,-25.539 53.56,-26.36 81.57,-18.957 16.48,2.48 34.63,8.25 41.21,25.546 h 3.3 c 1.64,-23.886 -23.91,-32.949 -39.55,-47.789 -4.96,-10.711 -16.49,-24.73 -28.02,-27.187 -59.34,2.457 -98.88,52.726 -158.21,53.558 -44.49,-4.96 -80.74,15.649 -105.47,48.622 -0.84,1.648 2.46,4.937 4.11,4.109 20.62,-10.699 45.32,-9.063 70.05,-9.063 1.63,15.661 -10.72,28.84 -13.18,44.512 -9.91,34.602 -22.25,78.281 2.46,109.59 12.35,18.109 37.09,26.371 46.97,45.309 7.41,0.839 4.94,-8.239 8.24,-12.348 v 0" /><path
         id="path22"
         style="fill:rgba(33, 95, 67, 0.10);fill-opacity:1;fill-rule:nonzero;stroke:none"
         d="m 778.699,401.289 c 20.602,-17.309 46.145,-22.23 70.864,-29.648 11.542,-0.821 22.253,-2.469 31.316,0.82 -7.422,9.059 -11.539,19.777 -12.348,32.141 6.586,14.828 16.481,-10.711 26.364,-9.883 41.199,-12.379 86.511,-18.137 131.025,-18.957 -14.02,7.398 -27.209,14.828 -41.213,21.418 -42.852,18.129 -108.769,48.621 -149.144,4.109 l -4.954,4.133 c 4.121,13.187 13.196,27.199 24.735,35.437 -28.02,-3.3 -60.164,-13.187 -76.645,-39.57 z M 744.094,589.18 c -27.192,4.941 -50.27,22.242 -78.281,18.941 2.468,-59.32 24.718,-110.41 56.847,-157.383 11.543,-12.359 21.434,-29.668 37.91,-34.609 28.844,30.492 62.633,46.961 103.016,49.453 -7.426,14 -9.902,30.469 -15.652,45.316 l 1.629,4.122 c 26.375,-17.309 50.273,-40.379 80.757,-47.801 -54.382,52.742 -117.84,97.23 -186.226,121.961 z m 262.036,515.02 c -23.064,-4.12 -45.317,-11.56 -69.216,-12.38 16.484,-6.57 32.141,-14 45.313,-28.82 1.66,-8.25 9.082,-15.66 4.941,-23.91 -25.535,9.9 -52.715,14 -72.5,37.91 l -22.246,-48.61 c 10.703,-31.32 25.547,-61.804 37.898,-89.831 18.118,21.429 37.082,41.195 58.508,56.859 43.672,17.302 12.362,65.102 18.952,99.712 l -1.65,9.07 z m -304.892,630.35 c 0,-14.84 4.121,-29.68 0,-42.85 l 1.653,-1.65 c 19.769,15.65 38.73,37.08 65.922,37.9 3.292,-18.13 -1.649,-39.56 -1.649,-57.68 14.008,4.13 28.016,16.48 44.496,14.83 -0.82,-87.32 -61.797,-158.18 -130.195,-209.27 -20.602,-20.6 -31.305,-47.79 -24.723,-79.11 13.192,-56.86 71.699,-92.29 103,-141.73 46.153,-64.27 84.883,-131.02 119.496,-199.42 31.309,31.32 11.524,84.06 5.774,121.96 -27.199,23.9 -52.75,51.09 -61.809,84.04 3.301,3.31 9.059,4.13 13.188,1.66 12.347,-26.37 38.726,-51.91 61.8,-70.04 10.696,4.12 18.957,11.54 27.192,20.6 4.937,0.82 9.07,-0.82 9.89,-4.94 v -5.78 l -27.207,-31.3 c -0.82,-19.79 0.821,-37.91 5.782,-54.39 10.703,15.65 17.297,42.85 39.55,53.56 9.895,4.12 21.426,10.71 30.489,9.89 -5.782,-28.02 -29.668,-48.63 -49.434,-68.4 23.887,0 47.774,5.78 70.037,14.02 12.37,18.95 9.06,46.96 14.83,70.04 14.01,54.38 51.09,119.47 14.01,175.52 -68.396,65.08 -162.334,134.31 -159.033,236.49 2.48,2.46 1.641,6.59 4.941,8.24 l 30.489,-18.96 c 3.3,20.61 0.82,43.65 9.882,62.61 18.133,-2.47 33.789,-15.66 48.614,-28 7.429,11.52 3.308,29.64 11.543,42.83 100.524,-37.07 103.824,-149.95 103.824,-245.53 0.82,-31.32 -9.06,-60.98 -6.6,-89 51.12,68.4 37.91,163.98 83.23,234.02 23.9,43.68 64.28,84.03 112.89,93.91 l 2.48,-2.47 c -1.66,-15.66 -4.13,-32.94 -5.77,-47.76 19.79,3.29 37.9,16.47 60.98,15.65 5.76,-17.3 -4.94,-35.43 -9.88,-51.91 16.47,3.29 35.43,4.94 51.9,9.89 8.24,-24.72 -9.05,-46.15 -23.07,-65.1 -68.38,-94.76 -190.35,-86.53 -248.03,-191.18 h 4.96 c 83.21,60.15 210.12,107.95 306.52,42.85 l 4.94,-7.41 c -9.88,-11.54 -22.24,-19.77 -35.43,-24.72 v -2.48 c 15.65,-11.53 33.79,-24.72 41.2,-42.85 -3.28,-12.36 -18.95,-11.53 -28.83,-15.65 -8.24,-0.83 -18.14,2.47 -24.73,-3.3 13.19,-14.01 33.79,-28.01 32.13,-48.61 -49.43,-24.72 -108.77,-6.6 -153.26,18.95 -42.83,25.53 -84.04,70.04 -138.44,52.73 -62.63,-32.12 -70.87,-104.64 -77.45,-168.92 l 2.46,-2.47 c 33.79,14 79.11,16.48 94.76,58.51 9.08,14 19.78,32.13 36.27,37.9 17.3,0 34.61,6.59 51.91,1.65 v -3.3 c -19.78,-4.12 -32.95,-24.73 -47.79,-34.61 -10.72,-8.24 -26.37,-9.88 -33.79,-21.43 36.27,5.78 66.76,30.49 108.77,23.91 18.14,-4.95 37.91,-5.77 53.56,-14.84 l -0.82,-4.12 c -38.73,-6.59 -74.16,-28.01 -117.01,-15.65 -14.83,3.28 -28.84,-1.65 -41.2,-7.42 22.25,-9.06 50.26,-4.94 71.68,-15.65 10.73,-4.95 19.78,-14.01 32.15,-14.84 l -4.12,-4.12 c -32.13,-0.82 -67.58,-11.53 -93.94,9.06 -12.37,8.25 -27.2,19.78 -43.68,10.72 l -70.86,-25.56 c -1.64,-28 -6.58,-62.62 4.11,-86.5 90.66,59.32 211.79,82.4 322.2,60.97 24.72,-4.12 56.85,-7.41 74.16,15.66 31.31,43.66 32.13,100.53 60.98,145.85 18.14,31.31 43.67,68.39 81.58,79.1 7.42,-12.36 -1.64,-30.49 0,-44.5 18.13,6.6 35.45,23.9 57.68,24.73 1.65,-18.13 -4.94,-35.43 -10.72,-51.92 l 2.48,-1.65 c 15.65,1.65 28.84,13.19 46.14,9.07 -2.46,-27.2 -18.12,-51.09 -31.31,-74.16 -43.67,-74.99 -125.25,-106.3 -201.87,-122.78 61.8,-26.37 143.36,10.71 208.46,-17.3 37.91,-14.84 80.76,-32.16 103,-71.706 0,-12.348 -14.82,-5.766 -22.24,-9.055 -6.6,-0.832 -15.66,2.469 -20.6,-3.293 15.66,-18.961 29.66,-39.559 33.78,-61.813 -18.12,-7.414 -38.73,0.821 -56.03,0.821 4.12,-13.996 11.54,-28.836 11.54,-45.321 l -3.3,-3.281 c -54.4,10.703 -103.83,32.953 -143.38,79.098 -32.14,39.551 -66.75,86.53 -114.53,104.65 13.99,-18.12 32.95,-37.07 43.66,-59.334 23.9,-58.496 50.27,-139.25 14.02,-201.054 -16.49,-19.778 -28.85,-40.372 -50.27,-54.391 -14.01,-3.289 -9.89,13.199 -12.35,21.422 -0.84,4.961 1.64,10.722 -1.66,14.012 -15.66,-10.711 -29.67,-25.536 -48.62,-28.004 -5.77,7.41 -4.95,18.953 -4.95,29.656 1.66,11.543 3.3,22.246 6.6,32.957 -14.01,-4.109 -28.83,-16.473 -44.5,-14.012 -7.42,65.106 40.38,111.246 69.22,163.164 0.82,5.762 7.42,11.532 9.06,18.121 8.25,20.61 7.43,49.443 -6.59,66.763 -47.78,60.14 -133.5,51.09 -201.04,42.84 -58.52,-6.59 -108.79,-34.61 -159.06,-60.16 l -9.88,-9.88 c 7.41,-58.516 26.36,-112.074 43.66,-165.633 36.26,-94.766 53.56,-215.887 11.55,-313.125 -18.13,-42.852 -25.55,-89.82 -31.31,-137.621 -9.9,0.84 -13.2,12.379 -18.14,18.961 -41.2,63.457 -18.11,149.148 -4.94,218.359 5.76,11.528 -0.82,22.25 -1.65,33.801 2.47,3.289 7.41,0.816 9.89,-0.832 18.14,-21.441 29.66,-45.328 24.72,-76.629 -1.65,-23.902 -12.36,-43.691 -14.84,-66.75 9.9,-2.473 9.08,10.711 14.02,16.469 42.02,84.058 26.37,194.488 -2.48,280.18 -17.3,58.496 -42.01,115.359 -54.38,176.347 -27.202,-18.961 -58.491,-44.512 -75.808,-72.531 16.477,-45.32 23.071,-94.754 33.789,-142.547 l 2.461,-3.301 c 18.957,16.485 33.788,41.2 59.338,43.68 -2.47,-7.422 -13.19,-13.191 -16.47,-20.594 -38.755,-65.933 -1.66,-145.043 -4.96,-218.383 l -4.12,-59.32 c -5.77,-9.07 -11.53,3.289 -16.471,4.949 -50.274,50.25 -38.731,127.711 -56.036,192.809 -5.781,26.379 -14.023,51.918 -30.488,74.164 -1.66,5.781 6.582,4.941 9.883,3.301 12.352,-4.942 23.074,-15.656 33.77,-25.547 l 1.66,5.762 c -6.582,39.558 -12.356,79.109 -29.676,113.718 -27.18,-38.73 -42.004,-84.871 -45.305,-135.144 9.895,3.301 18.125,14.844 29.668,15.664 0.82,-6.582 -6.594,-9.883 -6.594,-15.664 -10.73,-65.082 35.43,-111.235 46.145,-169.742 -4.121,-4.95 -9.063,1.648 -12.363,3.308 -46.961,46.949 -85.7,98.051 -106.297,156.559 -3.305,9.055 -18.121,13.996 -14.016,23.887 15.664,-1.641 27.203,-16.473 42.024,-18.114 6.597,60.965 25.554,116.992 56.043,168.086 -3.301,31.309 -18.133,60.153 -31.309,88.172 h -3.301 C 837.211,930.316 773.766,860.273 709.48,813.32 l 1.653,-1.652 c 42.851,18.945 96.422,13.176 135.14,42.844 -2.468,-20.598 -19.769,-40.371 -37.91,-52.735 -31.312,-16.484 -74.16,-14.023 -110.418,-9.882 -7.414,-1.661 -16.48,-8.243 -18.121,-16.485 -8.242,-10.715 4.938,-17.305 11.539,-21.426 50.258,-21.425 97.223,-52.734 141.719,-89.004 61.813,-53.558 109.613,-121.941 170.578,-171.39 l 9.89,-42.031 c -3.3,-4.938 -7.42,-1.637 -11.54,-0.821 -58.494,53.563 -112.069,107.114 -175.506,148.321 -9.895,6.601 -22.262,7.421 -32.973,13.191 12.364,4.949 32.973,2.469 49.442,1.648 h 7.41 c -4.11,16.481 -25.539,27.192 -38.723,39.551 -42.847,37.91 -91.461,61.801 -140.078,85.711 l -3.301,-2.48 c 0,-21.43 -6.586,-39.551 -5.758,-61.801 7.411,-0.84 9.879,8.242 17.301,12.359 15.66,10.711 38.715,4.121 55.199,0 -0.82,-6.597 -9.062,-1.656 -12.363,-5.777 -15.648,-11.539 -31.297,-26.359 -51.898,-26.359 -5.782,-4.942 -7.418,-11.532 -8.239,-18.133 10.7,-9.887 26.36,-5.778 38.715,-11.528 123.606,-27.203 224.145,-115.359 321.382,-202.73 13.17,-31.289 44.49,-55.191 36.25,-94.75 l -12.36,-1.652 c -70.033,1.652 -163.99,36.261 -212.6,-28.829 -7.406,9.059 4.953,18.122 7.414,28.008 4.129,7.434 13.188,13.184 14.836,21.422 -15.656,4.942 -32.137,6.602 -46.976,13.18 l -46.961,22.25 c -17.301,-18.121 -32.961,-41.192 -46.137,-63.449 8.234,-42.84 -38.742,-70.86 -28.844,-113.711 -0.832,-1.66 -3.301,0 -4.953,-0.828 -9.887,11.546 -8.234,28.847 -16.476,39.558 -27.192,-27.18 -53.563,-55.199 -59.329,-91.469 0,-34.609 0,-70.859 -32.964,-88.1597 -4.934,-0.8321 -7.415,-7.4297 -14,-4.9493 -18.137,41.199 9.066,84.059 33.781,117.84 -1.653,0.816 -5.766,1.637 -6.598,-1.652 -40.379,-34.61 -89.816,-53.571 -143.383,-46.161 -10.707,8.25 -32.961,6.61 -32.129,23.903 34.602,45.328 98.063,7.418 142.547,28.847 12.367,1.653 24.723,6.602 32.145,15.661 -25.539,-6.598 -59.328,-5.782 -82.41,6.582 -14,9.898 -26.36,23.886 -25.539,39.558 55.211,20.602 94.765,-55.199 149.964,-11.531 l 25.555,26.371 c -11.527,7.398 -28.84,4.941 -37.082,18.121 22.25,-3.301 41.203,9.891 51.91,28.828 7.422,12.383 18.129,26.391 34.61,24.742 l 41.203,62.618 c -65.09,60.16 -93.934,134.32 -103,216.711 -14.832,12.378 -32.957,-2.469 -49.446,4.949 -43.664,-6.598 -98.875,-4.129 -118.656,-51.09 -4.121,-44.488 45.321,-61.797 70.051,-89.809 43.66,-37.898 74.16,-85.711 60.141,-143.379 -11.536,-1.652 -16.481,12.348 -26.364,15.649 -5.765,-16.481 2.473,-38.731 -7.418,-53.559 -17.297,0 -27.191,22.239 -42.847,23.899 -0.832,-14.032 -2.485,-28.02 -9.895,-38.739 l -9.887,0.821 c -74.98,50.277 -91.46,144.199 -77.46,229.91 2.48,20.598 11.542,38.738 18.128,57.668 -56.031,-35.41 -58.511,-106.289 -64.265,-169.731 -9.067,-54.39 -28.844,-106.3 -71.692,-145.031 -9.89,9.883 -13.195,27.184 -12.363,44.512 -9.887,-4.949 -19.769,-20.61 -31.308,-26.391 -5.774,-3.301 -14.008,-9.879 -19.782,-5.758 -9.879,18.118 -4.941,42.008 -11.539,60.149 -11.531,-5.758 -23.89,-17.301 -37.906,-12.36 -10.703,76.629 28.848,145.86 93.949,188.692 42.016,27.207 89.82,40.387 127.719,75 l -1.649,2.469 C 328.793,545.5 210.133,529.02 119.48,570.211 c -18.128,12.371 -38.7261,26.391 -49.437,45.328 9.8789,14.84 29.6601,15.652 46.148,19.77 -11.539,16.492 -29.6676,28.863 -37.9097,46.992 15.6601,8.23 37.0897,4.109 54.3787,9.058 -4.113,9.891 -11.539,18.11 -13.18,29.661 85.711,21.421 158.211,-28.02 209.313,-93.122 74.16,-68.386 164.801,1.661 247.199,4.954 18.129,2.457 39.551,2.457 57.692,0 4.937,1.636 7.41,6.597 6.582,11.519 -15.653,45.328 -69.211,43.688 -108.762,47.809 -27.211,-4.942 -36.27,-40.379 -64.281,-42.02 -21.43,-1.66 -46.969,1.641 -62.629,13.192 33.781,6.57 65.929,15.648 95.586,31.308 0.832,5.77 -4.946,4.121 -8.239,4.121 -42.847,-5.781 -78.289,6.571 -107.949,32.129 3.305,9.07 17.313,1.649 24.719,6.598 37.898,13.996 59.332,-24.738 93.949,-25.559 l 2.461,1.66 c -26.359,18.95 -41.199,55.2 -70.867,65.102 3.301,5.762 13.187,3.281 18.961,2.461 23.898,-2.461 50.258,-11.535 60.16,-35.43 4.938,-12.351 4.938,-31.312 21.414,-33.793 37.91,-2.48 73.348,-11.519 105.477,-28.008 l 3.297,4.118 7.417,62.625 c -65.917,31.308 -130.199,65.918 -203.539,77.461 -42.031,2.468 -65.086,-43.672 -106.289,-39.551 0,14.004 6.582,28.008 14.821,39.551 -28.84,4.941 -56.024,-4.122 -84.86,0 -36.258,8.242 -83.23,17.304 -114.543,-6.582 -28.843,-37.09 -66.7458,-67.579 -116.1872,-60.989 3.2891,17.305 23.0586,31.321 36.25,42.024 24.7192,25.547 58.5082,27.207 87.3512,42.851 -5.781,9.063 -13.195,-3.293 -20.601,4.121 C 94.7617,851.219 40.3828,826.504 0,859.453 c 2.46875,6.598 12.3633,7.426 18.125,12.363 -5.7617,9.063 -16.48437,17.297 -17.304687,27.192 31.324187,-8.242 66.742187,4.121 96.410187,-11.528 23.0745,-7.421 44.5035,-28.027 70.0505,-25.546 -14.011,12.351 -31.308,19.773 -46.16,32.132 -23.8905,19.77 -39.539,45.325 -64.2616,62.622 5.7617,10.718 23.0625,4.953 34.6015,4.953 55.2231,-14.836 75.8201,-84.055 126.0941,-107.129 60.136,-9.883 123.597,-13.184 182.097,2.48 -36.257,25.535 -77.461,40.367 -114.539,65.086 -38.722,5.777 -77.461,13.192 -107.941,36.262 -2.481,3.301 2.461,6.598 4.113,9.898 10.719,-1.652 23.074,-11.55 35.438,-14.84 11.531,-4.121 25.547,-6.593 36.25,-8.242 l -32.129,31.313 c -3.289,9.066 6.59,5.765 9.886,9.898 18.954,-8.25 32.961,-29.679 51.911,-34.621 4.121,6.594 3.293,20.602 14.007,18.949 12.368,-9.886 -3.293,-23.89 5.762,-34.605 48.621,-36.25 105.481,-51.91 157.395,-78.277 l 0.832,1.64 c -33.797,22.254 -67.586,56.863 -61.805,102.188 2.473,12.359 3.293,24.726 6.578,36.25 h 4.949 c -4.949,-68.395 83.235,-95.582 93.114,-157.383 l 149.98,-65.098 c 4.949,-0.82 6.59,4.121 7.41,7.422 7.418,18.125 -14.816,28.008 -24.718,35.43 -25.543,9.062 -60.153,27.187 -63.446,58.496 12.364,-2.473 25.543,-10.707 40.383,-11.528 23.063,-7.417 46.961,-25.554 56.852,-48.628 4.949,18.953 18.949,38.73 8.242,59.336 -8.242,6.589 -16.481,17.3 -8.242,26.371 12.355,7.406 10.711,-14.829 23.07,-18.129 18.961,18.949 28.836,46.136 32.137,74.16 3.3,0.82 7.422,5.765 11.543,2.469 3.289,-28.012 -10.723,-55.215 -22.258,-79.93 -9.883,-14 -17.301,-29.66 -18.121,-47.793 l 6.586,1.648 c 68.394,49.446 127.718,119.485 164.808,192.836 -49.437,105.46 -109.597,209.29 -196.937,296.64 -13.188,12.36 -34.617,16.48 -51.918,8.24 -14.828,-4.95 -23.074,-21.43 -30.481,-34.61 -26.383,-69.22 -23.91,-170.57 -116.191,-191.17 -7.422,9.06 -3.301,25.53 -4.949,37.9 -13.192,-2.47 -23.075,-17.3 -36.262,-23.07 -8.234,-4.94 -18.129,-11.53 -26.367,-9.89 -4.121,16.48 -4.942,34.61 -6.59,51.91 l -51.09,-16.47 -2.473,4.12 c 11.532,91.46 102.168,175.51 188.704,198.58 32.136,3.3 61.796,18.14 97.238,9.89 l 1.637,1.65 c -20.598,14.01 -44.485,25.55 -70.04,20.6 -46.152,3.29 -91.457,-5.77 -136.789,4.11 -60.148,8.26 -121.121,32.14 -155.738,82.42 15.66,2.47 29.668,9.87 46.149,12.35 -13.192,17.3 -19.774,38.73 -26.368,57.68 23.079,5.77 45.317,-2.47 67.567,-4.95 -1.649,15.67 -11.528,32.15 -10.707,49.45 112.89,4.95 185.41,-88.18 256.269,-169.74 l 37.903,-28.85 c -9.067,80.76 -47.786,162.34 -19.774,248.03 9.891,40.35 34.61,81.56 74.16,102.16 h 6.586 v 0" /><path
         id="path24"
         style="fill:rgba(33, 95, 67, 0.10);fill-opacity:1;fill-rule:nonzero;stroke:none"
         d="m 1150.33,305.699 c 7.42,-13.168 13.19,-27.187 16.49,-42.008 -37.09,2.457 -80.76,18.118 -117.84,0.821 -9.07,-3.301 -12.36,-13.184 -14.83,-20.602 h -1.65 c -8.24,18.129 1.65,36.262 10.71,50.27 -7.42,1.66 -18.95,-0.821 -26.35,-5.77 -14.03,-9.898 -24.731,-23.898 -27.212,-39.558 2.481,-79.93 126.902,-75.801 110.432,-160.6918 -5.78,-0.8204 -9.06,5.7812 -14.02,1.6601 -3.29,-5.7812 1.65,-14.8398 -4.95,-18.1289 -9.88,-4.1211 -21.42,18.9492 -23.88,2.4805 0.82,-4.9414 1.64,-10.7227 -4.12,-12.3633 -60.981,30.4727 -81.579,97.2304 -84.887,161.5004 l 9.062,36.261 c -21.406,-13.179 -26.367,-41.199 -37.89,-62.621 -6.602,-28.027 -8.25,-53.558 -5.774,-82.398 C 936.094,78.2813 939.395,37.8984 922.91,5.76172 L 918.789,4.12891 909.727,16.4805 894.895,0 C 885.82,6.60156 892.422,21.4219 885.012,29.6719 875.117,23.082 866.871,7.42188 855.344,6.60156 812.48,109.602 913.027,174.691 947.617,257.102 889.941,224.961 842.152,159.039 769.645,158.199 c -9.903,-1.64 -14.024,8.242 -9.075,15.672 1.653,6.598 8.243,10.719 9.075,18.117 -8.243,4.961 -22.262,-3.277 -27.204,6.602 24.723,32.949 59.332,60.98 100.532,63.449 60.152,0.832 115.367,16.473 163.977,46.961 46.16,14.012 98.07,9.891 143.38,-3.301 v 0" /><path
         id="path26"
         style="fill:rgba(33, 95, 67, 0.10);fill-opacity:1;fill-rule:nonzero;stroke:none"
         d="m 126.754,1176.55 c 11.738,11.48 15.973,22.52 13.758,28.45 -6.039,1.23 -17.02,-1.61 -28.758,-13.09 -3.742,-3.64 -6.633,-7.2 -8.832,-10.54 -0.012,0.02 -0.031,0.02 -0.039,0.02 -0.844,3.9 -2.207,8.25 -4.3283,12.97 -6.7539,14.98 -15.7031,22.74 -22.0117,22.71 -3.211,-5.25 -4.3321,-16.53 2.3984,-31.52 2.1719,-4.8 4.5586,-8.8 6.9609,-12.03 -0.0937,-0.14 -0.1406,-0.29 -0.2187,-0.45 -4.1484,0.45 -9.0156,0.41 -14.4922,-0.27 -16.2891,-2.06 -26.3281,-8.35 -28.1406,-14.41 4.082,-4.61 14.5625,-8.97 30.8515,-6.91 5.3399,0.67 9.9415,1.81 13.7891,3.22 0.2266,-0.27 0.4649,-0.53 0.6914,-0.79 -1.6211,-3.78 -3.0312,-8.32 -4.0234,-13.64 -2.9766,-16.14 -0.0391,-27.63 5.1719,-31.2 5.6484,2.5 12.9807,11.16 15.9607,27.3 0.985,5.27 1.281,9.97 1.117,14.06 0.024,0.01 0.063,0 0.086,0.02 0.356,0.14 0.668,0.4 1.032,0.6 3.207,-2.57 7.222,-5.1 12.086,-7.44 14.8,-7.11 26.636,-7.28 31.437,-3.18 -0.906,6.09 -7.348,15.44 -22.148,22.55 -4.731,2.27 -9.114,3.78 -13.028,4.7 -0.019,0.11 -0.019,0.21 -0.035,0.31 3.387,2.12 7.004,4.92 10.715,8.56 z m 35.437,-43.81 -24.464,-5.62 -1.641,-24.01 -26.316,10.57 -18.938,-18.55 -15.3593,23.31 -25.8399,-5.65 2.9688,30.28 -0.3516,-0.11 -22.8164,14.35 19.2578,20.51 h 0.0938 l -13.711,21.99 30,3.76 -0.0625,0.11 6.9414,26.05 25.2383,-12.26 14.9216,19.14 11.617,-25.44 0.391,0.53 26.859,2.21 -2.878,-26.05 21.886,-12.8 -17.683,-20.12 9.886,-22.2 v 0" /><path
         id="path28"
         style="fill:rgba(33, 95, 67, 0.10);fill-opacity:1;fill-rule:nonzero;stroke:none"
         d="m 190.902,1026.12 c 16.422,0.26 27.09,5.38 29.563,11.2 -3.551,5.04 -13.473,10.53 -29.895,10.27 -5.218,-0.07 -9.757,-0.67 -13.656,-1.59 0.012,0.02 0,0.04 -0.012,0.05 2.075,3.4 4.059,7.51 5.77,12.39 5.41,15.53 4.23,27.31 -0.367,31.62 -5.953,-1.6 -14.512,-9.04 -19.922,-24.54 -1.738,-4.97 -2.75,-9.52 -3.223,-13.51 -0.156,-0.05 -0.308,-0.12 -0.469,-0.19 -2.711,3.18 -6.257,6.5 -10.707,9.77 -13.254,9.71 -24.859,12.03 -30.343,8.88 -0.207,-6.15 4.398,-16.51 17.64,-26.22 4.352,-3.19 8.469,-5.52 12.242,-7.15 -0.023,-0.35 -0.035,-0.69 -0.043,-1.04 -3.781,-1.63 -7.929,-3.97 -12.3,-7.15 -13.254,-9.67 -19.02,-20.03 -17.692,-26.21 5.825,-2.06 17.09,-0.81 30.356,8.86 4.328,3.15 7.793,6.35 10.476,9.44 0.02,-0.02 0.043,-0.04 0.075,-0.04 0.367,-0.14 0.765,-0.18 1.156,-0.27 0.57,-4.08 1.742,-8.68 3.672,-13.72 5.859,-15.329 14.34,-23.591 20.64,-23.923 3.532,5.047 5.285,16.258 -0.582,31.593 -1.871,4.91 -4.019,9.01 -6.23,12.38 0.062,0.09 0.133,0.16 0.191,0.25 3.918,-0.79 8.473,-1.25 13.66,-1.15 z m -4.379,-56.182 -21.628,12.726 -17.704,-16.289 -11.847,25.762 -26.492,-0.457 4.859,27.5 -22.6446,13.66 22.9766,19.94 -0.332,0.16 -6.707,26.11 28.098,1.67 0.05,-0.08 5.161,25.4 24.378,-17.89 0.039,0.12 22.942,14.15 9.902,-26.26 23.996,3.65 -9.058,-26.47 0.652,0.11 21.031,-16.85 -20,-16.93 7.098,-24.361 -26.688,-2.454 -8.082,-22.917 v 0" /><path
         id="path30"
         style="fill:rgba(33, 95, 67, 0.10);fill-opacity:1;fill-rule:nonzero;stroke:none"
         d="m 339.563,1024.8 c 15.828,-4.34 27.5,-2.42 31.5,2.49 -1.993,5.82 -9.977,13.87 -25.809,18.22 -5.027,1.39 -9.563,2.09 -13.559,2.31 0.008,0 0.008,0.02 0,0.03 2.938,2.69 5.996,6.06 9.008,10.29 9.539,13.39 11.707,25.03 8.5,30.46 -6.16,0.12 -16.461,-4.61 -26,-17.99 -3.062,-4.28 -5.305,-8.36 -6.871,-12.06 -0.172,-0.01 -0.332,-0.03 -0.504,-0.05 -1.707,3.8 -4.187,7.98 -7.547,12.37 -10,13.04 -20.5,18.51 -26.64,17.02 -1.93,-5.85 -0.403,-17.09 9.597,-30.11 3.282,-4.28 6.582,-7.68 9.742,-10.29 -0.105,-0.33 -0.226,-0.65 -0.328,-0.99 -4.082,-0.5 -8.718,-1.59 -13.812,-3.41 -15.438,-5.57 -23.856,-13.91 -24.317,-20.23 5.012,-3.6 16.176,-5.55 31.618,0.02 5.043,1.81 9.254,3.92 12.699,6.13 0.019,-0.02 0.031,-0.06 0.055,-0.06 0.328,-0.24 0.699,-0.39 1.05,-0.59 -0.601,-4.06 -0.761,-8.81 -0.324,-14.19 1.328,-16.361 7.16,-26.67 13.121,-28.752 4.801,3.859 9.617,14.141 8.281,30.502 -0.418,5.23 -1.332,9.77 -2.507,13.63 0.086,0.07 0.168,0.12 0.257,0.18 3.532,-1.85 7.77,-3.56 12.79,-4.93 z m -19.938,-52.71 -17.203,18.289 -21.547,-10.703 -4.16,28.054 -25.57,6.98 12.367,25.04 -17.922,19.45 27.64,12.72 -0.265,0.24 0.867,26.94 27.434,-6.26 0.039,-0.09 12.058,22.94 18.399,-24 0.058,0.1 25.993,7.17 2.148,-27.98 24.07,-3.22 -16.109,-22.88 0.652,-0.07 15.481,-22.07 -23.953,-10.65 v -25.371 l -26.309,5.117 -14.168,-19.746 v 0" /><path
         id="path32"
         style="fill:rgba(33, 95, 67, 0.10);fill-opacity:1;fill-rule:nonzero;stroke:none"
         d="m 533.555,1026.63 c 15.09,6.46 23.015,15.25 23.093,21.58 -5.187,3.31 -16.449,4.63 -31.546,-1.83 -4.789,-2.06 -8.77,-4.31 -12.039,-6.65 0,0.02 -0.012,0.02 -0.02,0.02 0.629,3.96 0.906,8.51 0.629,13.68 -0.867,16.41 -6.422,26.87 -12.309,29.12 -4.902,-3.74 -10.019,-13.85 -9.152,-30.26 0.289,-5.26 1.07,-9.85 2.16,-13.72 -0.129,-0.11 -0.25,-0.23 -0.367,-0.34 -3.711,1.9 -8.25,3.61 -13.613,4.97 -15.95,3.96 -27.571,1.71 -31.442,-3.28 2.125,-5.78 10.332,-13.62 26.266,-17.58 5.23,-1.3 9.918,-1.91 14.027,-1.98 0.117,-0.33 0.231,-0.65 0.363,-0.98 -2.89,-2.95 -5.843,-6.67 -8.683,-11.27 -8.609,-13.981 -10,-25.751 -6.43,-30.973 6.16,0.301 16.117,5.726 24.731,19.707 2.808,4.546 4.793,8.826 6.109,12.706 0.039,-0.01 0.059,-0.02 0.078,-0.02 0.403,0.03 0.789,0.14 1.184,0.2 2.066,-3.55 4.91,-7.37 8.586,-11.304 11.242,-11.981 22.222,-16.399 28.175,-14.321 1.356,6.012 -1.277,17.065 -12.5,29.025 -3.605,3.83 -7.144,6.82 -10.464,9.1 0.031,0.1 0.054,0.19 0.082,0.3 3.922,0.75 8.3,2.05 13.082,4.1 z m 17.238,-53.642 -24.852,3.578 -10.199,-21.777 -20.73,19.352 -24.348,-10.473 -5.914,27.297 -26.137,4.055 13.7,27.17 -0.372,0.01 -16.086,21.62 25.356,12.2 0.094,-0.06 -4.864,25.47 29.352,-7.33 -0.023,0.13 15.871,21.79 19.113,-20.55 20.828,12.48 1.66,-27.94 0.551,0.35 25.84,-7.62 -12.09,-23.24 15.801,-19.86 -23.774,-12.386 1.223,-24.266 v 0" /><path
         id="path34"
         style="fill:rgba(33, 95, 67, 0.10);fill-opacity:1;fill-rule:nonzero;stroke:none"
         d="m 660.922,1109.38 c 14.488,7.72 21.652,17.14 21.183,23.44 -5.457,2.88 -16.785,3.23 -31.285,-4.47 -4.597,-2.45 -8.371,-5.05 -11.425,-7.64 0,0.01 -0.008,0.02 -0.024,0.02 0.293,3.98 0.192,8.55 -0.527,13.67 -2.262,16.28 -8.684,26.23 -14.742,27.98 -4.559,-4.15 -8.797,-14.66 -6.547,-30.93 0.738,-5.22 1.898,-9.73 3.308,-13.49 -0.121,-0.14 -0.226,-0.26 -0.332,-0.38 -3.859,1.59 -8.527,2.91 -13.988,3.81 -16.223,2.6 -27.613,-0.64 -31.051,-5.94 2.61,-5.57 11.449,-12.7 27.66,-15.29 5.321,-0.86 10.051,-1.06 14.153,-0.78 0.136,-0.32 0.289,-0.64 0.437,-0.96 -2.621,-3.17 -5.254,-7.12 -7.687,-11.95 -7.403,-14.67 -7.793,-26.52 -3.782,-31.4 6.11,0.81 15.567,7.06 22.961,21.73 2.426,4.77 4.028,9.2 5.02,13.17 0.039,0 0.059,-0.02 0.086,-0.01 0.39,0.06 0.762,0.2 1.152,0.3 2.36,-3.36 5.508,-6.93 9.508,-10.55 12.23,-10.97 23.547,-14.45 29.293,-11.87 0.84,6.11 -2.711,16.89 -14.922,27.86 -3.906,3.51 -7.687,6.19 -11.187,8.18 0.019,0.1 0.039,0.21 0.046,0.3 3.84,1.09 8.102,2.76 12.692,5.2 z m 21.719,-51.99 -25.059,1.46 -8.32,-22.56 -22.289,17.52 -23.379,-12.49 -8.211,26.69 -26.379,1.83 11.348,28.23 -0.372,-0.02 -17.867,20.18 24.231,14.3 0.097,-0.05 -7,24.96 29.86,-4.8 -0.02,0.12 13.961,23.06 20.781,-18.86 19.7,14.21 4.019,-27.71 0.52,0.41 26.402,-5.41 -10.086,-24.19 17.434,-18.44 -22.641,-14.35 3.27,-24.09 v 0" /><path
         id="path36"
         style="fill:rgba(33, 95, 67, 0.10);fill-opacity:1;fill-rule:nonzero;stroke:none"
         d="m 773.383,1046.15 c 7.379,14.67 7.801,26.49 3.769,31.36 -6.113,-0.79 -15.57,-7.04 -22.957,-21.7 -2.343,-4.65 -3.922,-8.97 -4.933,-12.83 -0.008,0.01 -0.008,0.01 -0.028,0 -2.062,3.43 -4.781,7.09 -8.312,10.86 -11.25,12 -22.238,16.42 -28.188,14.36 -1.332,-6.03 1.27,-17.05 12.5,-29.05 3.598,-3.83 7.161,-6.86 10.489,-9.1 -0.032,-0.18 -0.039,-0.35 -0.059,-0.51 -4.07,-0.93 -8.652,-2.54 -13.621,-4.96 -14.754,-7.23 -22.18,-16.44 -21.941,-22.78 5.351,-3.023 16.671,-3.753 31.414,3.48 4.836,2.38 8.816,4.95 12.004,7.53 0.304,-0.18 0.613,-0.35 0.914,-0.54 -0.313,-4.09 -0.172,-8.84 0.621,-14.196 2.406,-16.23 8.929,-26.136 15.019,-27.824 4.531,4.195 8.649,14.75 6.219,31 -0.762,5.3 -2.02,9.84 -3.5,13.66 0.039,0.01 0.066,0.02 0.078,0.04 0.293,0.28 0.504,0.6 0.774,0.91 3.867,-1.39 8.5,-2.49 13.835,-3.11 16.325,-1.92 27.575,1.75 30.79,7.19 -2.836,5.47 -11.965,12.23 -28.27,14.13 -5.211,0.62 -9.84,0.62 -13.848,0.23 -0.047,0.1 -0.089,0.19 -0.132,0.27 2.511,3.11 5.019,6.94 7.363,11.58 z m 47.738,-29.93 -21.316,-13.27 6.226,-23.235 -28.32,1.453 -11.891,-23.688 -22.109,17.059 -22.598,-13.73 -7.011,29.609 -0.297,-0.234 -26.242,6.164 11.546,25.682 0.106,0.01 -20.113,16.36 27.171,13.3 -0.101,0.09 -1.899,26.89 27.86,-3.42 7.89,22.97 19.258,-20.3 0.199,0.62 24.692,10.81 5.711,-25.56 24.879,-5.02 -10.211,-24.78 16.57,-17.78 v 0" /><path
         id="path38"
         style="fill:rgba(33, 95, 67, 0.10);fill-opacity:1;fill-rule:nonzero;stroke:none"
         d="m 652.02,969.926 c 11.863,11.363 16.203,22.363 14.035,28.301 -6.02,1.289 -17.024,-1.43 -28.891,-12.77 -3.762,-3.613 -6.691,-7.148 -8.934,-10.457 0,0.008 -0.007,0.008 -0.027,0 -0.801,3.926 -2.129,8.285 -4.211,13.027 -6.59,15.063 -15.472,22.903 -21.762,22.953 -3.265,-5.23 -4.496,-16.492 2.071,-31.562 2.109,-4.801 4.465,-8.852 6.844,-12.078 -0.09,-0.164 -0.165,-0.324 -0.231,-0.461 -4.141,0.488 -8.988,0.488 -14.492,-0.121 -16.32,-1.879 -26.399,-8.082 -28.277,-14.133 4.019,-4.629 14.449,-9.109 30.746,-7.215 5.363,0.613 9.972,1.707 13.851,3.074 0.211,-0.257 0.449,-0.535 0.68,-0.808 -1.668,-3.762 -3.129,-8.27 -4.18,-13.578 -3.148,-16.11 -0.32,-27.629 4.86,-31.25 5.668,2.429 13.089,11.007 16.23,27.132 1.051,5.258 1.383,9.946 1.262,14.047 0.047,-0.007 0.066,-0.007 0.09,0 0.359,0.172 0.679,0.411 1.043,0.621 3.168,-2.621 7.175,-5.203 11.996,-7.578 14.742,-7.25 26.57,-7.562 31.422,-3.511 -0.852,6.109 -7.204,15.527 -21.911,22.769 -4.714,2.328 -9.082,3.883 -12.996,4.86 -0.008,0.101 -0.015,0.207 -0.027,0.292 3.414,2.09 7.051,4.856 10.809,8.446 z m 34.992,-44.16 -24.532,-5.387 -1.91,-23.973 -26.183,10.84 -19.133,-18.359 -15.133,23.461 -25.887,-5.371 3.278,30.25 -0.348,-0.118 -22.672,14.571 19.457,20.336 0.114,-0.02 -13.493,22.152 30.051,3.438 -0.058,0.133 7.203,25.961 25.105,-12.54 15.121,19.02 11.36,-25.56 0.398,0.52 26.883,1.93 -3.16,-26.011 21.769,-13.043 -17.898,-19.941 9.668,-22.289 v 0" /><path
         id="path40"
         style="fill:rgba(33, 95, 67, 0.10);fill-opacity:1;fill-rule:nonzero;stroke:none"
         d="m 832.363,1355.69 c 10.547,12.59 13.657,23.99 10.86,29.65 -6.133,0.62 -16.782,-3.28 -27.321,-15.84 -3.347,-4.01 -5.867,-7.84 -7.738,-11.39 0,0.02 -0.012,0.02 -0.027,0.02 -1.223,3.81 -3.024,7.99 -5.602,12.48 -8.215,14.25 -17.89,21.06 -24.152,20.44 -2.68,-5.57 -2.668,-16.9 5.508,-31.15 2.632,-4.54 5.402,-8.31 8.121,-11.26 -0.071,-0.18 -0.117,-0.34 -0.172,-0.49 -4.168,0.03 -8.996,-0.49 -14.391,-1.69 -16.019,-3.66 -25.371,-10.93 -26.574,-17.16 4.508,-4.16 15.363,-7.46 31.367,-3.8 5.246,1.2 9.723,2.79 13.422,4.57 0.238,-0.23 0.496,-0.48 0.766,-0.73 -1.25,-3.92 -2.196,-8.56 -2.668,-13.95 -1.367,-16.36 2.715,-27.5 8.25,-30.53 5.371,3.03 11.801,12.37 13.168,28.73 0.465,5.34 0.285,10.05 -0.285,14.11 0.046,0 0.066,0 0.085,0.02 0.34,0.21 0.629,0.48 0.961,0.72 3.454,-2.25 7.704,-4.38 12.758,-6.23 15.449,-5.6 27.242,-4.6 31.614,-0.04 -1.508,5.98 -8.836,14.65 -24.274,20.23 -4.926,1.81 -9.437,2.88 -13.437,3.42 -0.008,0.09 -0.028,0.2 -0.047,0.28 3.148,2.45 6.468,5.6 9.808,9.59 z m 39.61,-40.07 -23.789,-8.04 0.726,-24.04 -27.226,7.91 -17,-20.33 -17.606,21.65 -25.152,-8.17 -0.039,30.43 -0.332,-0.16 -24.133,12 17.121,22.34 h 0.102 l -15.832,20.54 29.5,6.71 -0.071,0.11 4.313,26.61 26.328,-9.72 12.937,20.55 14.102,-24.15 0.344,0.56 26.5,4.85 -0.293,-26.2 23.074,-10.59 -15.625,-21.77 12.051,-21.09 v 0" /><path
         id="path42"
         style="fill:rgba(33, 95, 67, 0.10);fill-opacity:1;fill-rule:nonzero;stroke:none"
         d="m 956.016,1307.61 c -0.645,16.41 -5.977,26.95 -11.856,29.25 -4.961,-3.64 -10.234,-13.68 -9.617,-30.08 0.203,-5.21 0.906,-9.75 1.902,-13.63 -0.019,0.01 -0.019,0 -0.039,-0.01 -3.457,2 -7.597,3.9 -12.519,5.5 -15.645,5.05 -27.403,3.59 -31.621,-1.06 1.757,-5.94 9.355,-14.32 25,-19.39 5,-1.62 9.57,-2.54 13.562,-2.9 0.07,-0.17 0.149,-0.32 0.207,-0.48 -3.113,-2.77 -6.328,-6.4 -9.519,-10.92 -9.438,-13.45 -11.477,-25.11 -8.196,-30.53 6.133,-0.07 16.407,4.77 25.801,18.21 3.086,4.41 5.344,8.61 6.895,12.41 0.332,-0.01 0.703,-0.02 1.047,-0.02 1.707,-3.75 4.121,-7.83 7.402,-12.14 9.961,-13.04 20.457,-18.56 26.598,-17.09 1.945,5.84 0.453,17.09 -9.532,30.14 -3.238,4.27 -6.531,7.63 -9.676,10.26 0.032,0.03 0.047,0.05 0.047,0.08 0.118,0.38 0.149,0.77 0.227,1.18 4.07,0.64 8.652,1.92 13.641,3.95 15.207,6.22 23.285,14.87 23.468,21.18 -5.144,3.42 -16.386,4.91 -31.582,-1.29 -4.863,-1.98 -8.926,-4.21 -12.258,-6.5 -0.078,0.07 -0.156,0.14 -0.222,0.18 0.703,3.94 1.035,8.49 0.84,13.7 z m 56.254,-3.11 -12.23,-21.93 16.68,-17.34 -25.49,-12.41 1.036,-26.49 -27.578,4.24 -13.165,-22.95 -20.46,22.52 -0.125,-0.33 -25.958,-7.29 -2.304,28.03 0.09,0.08 -25.52,4.6 17.344,24.77 -0.125,0.04 -14.66,22.62 26.035,10.47 -4.199,23.92 26.66,-8.45 -0.117,0.65 16.379,21.38 17.371,-19.61 24.199,7.65 3.047,-26.63 23.09,-7.54 v 0" /><path
         id="path44"
         style="fill:rgba(33, 95, 67, 0.10);fill-opacity:1;fill-rule:nonzero;stroke:none"
         d="m 1154.38,960.258 c -4.65,15.746 -12.45,24.648 -18.71,25.43 -3.91,-4.75 -6.53,-15.79 -1.88,-31.52 1.47,-5 3.27,-9.23 5.2,-12.754 -0.02,0.012 -0.03,0 -0.04,-0.008 -3.85,1.102 -8.32,1.903 -13.48,2.231 -16.42,1.051 -27.44,-3.274 -30.39,-8.817 3.15,-5.312 12.6,-11.574 29.01,-12.632 5.23,-0.333 9.9,-0.09 13.86,0.542 0.1,-0.152 0.21,-0.285 0.31,-0.41 -2.34,-3.465 -4.56,-7.761 -6.54,-12.929 -5.82,-15.371 -4.92,-27.164 -0.39,-31.621 5.94,1.457 14.72,8.675 20.51,24.027 1.89,5.039 3.04,9.648 3.61,13.711 0.32,0.078 0.68,0.148 1.02,0.238 2.57,-3.219 5.92,-6.566 10.16,-9.926 12.87,-10.191 24.42,-12.957 30,-10.011 0.44,6.148 -3.78,16.679 -16.67,26.855 -4.2,3.34 -8.22,5.793 -11.91,7.566 0.02,0.028 0.04,0.055 0.04,0.079 0.02,0.41 -0.06,0.781 -0.08,1.199 3.79,1.633 7.91,4.008 12.24,7.187 13.21,9.789 18.9,20.172 17.52,26.325 -5.82,2.039 -17.1,0.726 -30.28,-9.043 -4.24,-3.114 -7.62,-6.282 -10.26,-9.309 -0.12,0.039 -0.21,0.078 -0.28,0.109 -0.31,3.989 -1.09,8.481 -2.57,13.481 z m 55.29,10.859 -6.45,-24.273 20.44,-12.676 -21.64,-18.328 7.55,-25.41 -27.79,-2.692 -7.09,-25.484 -25.37,16.793 -0.06,-0.371 -23.34,-13.465 -9.16,26.605 0.06,0.102 -25.86,-1.852 10.7,28.301 -0.14,-0.008 -19.78,18.301 22.66,16.578 -9.98,22.153 27.93,-1.614 -0.28,0.59 10.61,24.774 21.66,-14.723 21.58,13.359 9.51,-25.039 24.24,-1.621 v 0" /><path
         id="path46"
         style="fill:rgba(33, 95, 67, 0.10);fill-opacity:1;fill-rule:nonzero;stroke:none"
         d="m 1294.53,1010.39 c -1.74,16.34 -7.79,26.5 -13.81,28.39 -4.7,-3.96 -9.27,-14.34 -7.55,-30.65 0.56,-5.18 1.56,-9.673 2.83,-13.482 -0.02,0.008 -0.04,0 -0.04,-0.011 -3.6,1.777 -7.85,3.371 -12.87,4.629 -15.96,4.004 -27.58,1.754 -31.49,-3.176 2.15,-5.805 10.3,-13.664 26.26,-17.672 5.09,-1.262 9.72,-1.871 13.73,-1.973 0.07,-0.156 0.15,-0.308 0.23,-0.461 -2.91,-2.976 -5.88,-6.804 -8.75,-11.527 -8.52,-14.066 -9.76,-25.828 -6.12,-31.019 6.12,0.359 16.06,5.859 24.51,19.921 2.8,4.61 4.75,8.942 6.03,12.836 0.33,0.008 0.7,0.008 1.05,0.043 1.97,-3.633 4.64,-7.535 8.2,-11.601 10.82,-12.348 21.68,-17.149 27.7,-15.274 1.54,5.985 -0.71,17.098 -11.55,29.434 -3.51,4.039 -7.03,7.187 -10.33,9.59 0.02,0.031 0.04,0.058 0.04,0.07 0.1,0.398 0.08,0.789 0.15,1.191 4.03,0.926 8.5,2.52 13.33,4.868 14.75,7.242 22.22,16.424 21.99,22.714 -5.36,3.07 -16.68,3.82 -31.42,-3.4 -4.73,-2.3 -8.62,-4.81 -11.78,-7.322 -0.1,0.066 -0.18,0.121 -0.24,0.16 0.43,3.982 0.45,8.552 -0.1,13.722 z m 56.35,0.71 -10.74,-22.721 17.83,-16.164 -24.61,-14.121 2.84,-26.348 -27.82,2.367 -11.58,-23.777 -21.92,21.098 -0.11,-0.356 -25.41,-9.027 -4.2,27.828 0.09,0.082 -25.78,2.855 15.65,25.903 -0.15,0.019 -16.14,21.562 25.27,12.22 -5.81,23.59 27.18,-6.63 -0.17,0.64 14.9,22.43 18.67,-18.38 23.61,9.25 4.84,-26.35 23.56,-5.97 v 0" /><path
         id="path48"
         style="fill:rgba(33, 95, 67, 0.10);fill-opacity:1;fill-rule:nonzero;stroke:none"
         d="m 1688.01,802.871 c 8.21,14.227 9.31,25.996 5.56,31.074 -6.13,-0.441 -15.93,-6.132 -24.16,-20.332 -2.59,-4.511 -4.44,-8.73 -5.66,-12.558 0,0.039 -0.02,0.019 -0.03,0.019 -1.84,3.555 -4.36,7.352 -7.68,11.328 -10.53,12.618 -21.25,17.645 -27.31,15.965 -1.68,-5.965 0.28,-17.109 10.82,-29.754 3.36,-4.015 6.76,-7.238 9.93,-9.679 -0.04,-0.164 -0.05,-0.34 -0.08,-0.508 -4.12,-0.672 -8.77,-2.02 -13.87,-4.16 -15.15,-6.348 -23.1,-15.125 -23.21,-21.473 5.15,-3.301 16.43,-4.707 31.55,1.68 4.98,2.09 9.1,4.414 12.42,6.816 0.29,-0.176 0.59,-0.402 0.9,-0.586 -0.57,-4.082 -0.71,-8.808 -0.22,-14.199 1.47,-16.359 7.42,-26.625 13.39,-28.652 4.78,3.918 9.5,14.226 8,30.586 -0.46,5.339 -1.45,9.941 -2.71,13.835 0.04,0.012 0.07,0.032 0.09,0.032 0.31,0.273 0.53,0.593 0.81,0.879 3.79,-1.621 8.35,-2.969 13.65,-3.918 16.19,-2.832 27.63,0.187 31.15,5.41 -2.54,5.637 -11.25,12.902 -27.4,15.742 -5.19,0.93 -9.81,1.203 -13.83,1.047 -0.04,0.098 -0.08,0.195 -0.12,0.262 2.7,2.961 5.41,6.64 8.01,11.144 z m 45.95,-32.598 -22.05,-12.05 4.91,-23.555 -28.22,3.066 -13.21,-22.972 -21.09,18.308 -23.36,-12.41 -5.31,29.965 -0.3,-0.215 -25.84,7.656 12.99,24.969 0.12,0.012 -19.16,17.488 27.89,11.719 -0.09,0.09 -0.34,26.941 27.62,-5.008 9.18,22.489 18.07,-21.356 0.25,0.606 25.23,9.363 4.26,-25.84 24.55,-6.445 -11.62,-24.149 15.52,-18.672 v 0" /><path
         id="path50"
         style="fill:rgba(33, 95, 67, 0.10);fill-opacity:1;fill-rule:nonzero;stroke:none"
         d="m 1663.95,671.422 c -0.63,16.43 -5.96,26.976 -11.82,29.277 -4.96,-3.629 -10.25,-13.668 -9.66,-30.058 0.21,-5.2 0.89,-9.762 1.89,-13.653 0,0.043 -0.02,0 -0.04,0 -3.46,2.032 -7.6,3.91 -12.52,5.512 -15.64,5.082 -27.39,3.629 -31.62,-1 1.74,-5.941 9.33,-14.34 24.98,-19.441 4.98,-1.61 9.57,-2.547 13.56,-2.918 0.07,-0.161 0.13,-0.321 0.21,-0.469 -3.14,-2.762 -6.35,-6.391 -9.55,-10.902 -9.46,-13.438 -11.51,-25.098 -8.23,-30.52 6.12,-0.07 16.41,4.738 25.82,18.18 3.11,4.41 5.35,8.59 6.9,12.379 0.35,0 0.7,-0.02 1.06,-0.02 1.7,-3.75 4.1,-7.82 7.37,-12.129 9.95,-13.058 20.45,-18.601 26.59,-17.148 1.95,5.859 0.47,17.109 -9.5,30.16 -3.23,4.289 -6.52,7.648 -9.66,10.269 0.04,0.039 0.06,0.059 0.07,0.079 0.12,0.39 0.12,0.781 0.22,1.16 4.07,0.66 8.65,1.941 13.63,3.949 15.22,6.203 23.31,14.851 23.5,21.141 -5.14,3.441 -16.37,4.96 -31.56,-1.231 -4.89,-1.969 -8.94,-4.199 -12.27,-6.48 -0.09,0.07 -0.17,0.121 -0.23,0.171 0.7,3.942 1.04,8.5 0.86,13.692 z m 56.23,-3.184 -12.26,-21.906 16.69,-17.352 -25.54,-12.398 1.03,-26.48 -27.61,4.289 -13.17,-22.93 -20.43,22.539 -0.14,-0.328 -25.96,-7.262 -2.28,28.059 0.1,0.062 -25.51,4.629 17.38,24.762 -0.13,0.019 -14.62,22.641 26.06,10.449 -4.18,23.918 26.65,-8.48 -0.12,0.652 16.4,21.348 17.35,-19.629 24.21,7.601 3.01,-26.621 23.07,-7.582 v 0" /><path
         id="path52"
         style="fill:rgba(33, 95, 67, 0.10);fill-opacity:1;fill-rule:nonzero;stroke:none"
         d="m 1545.47,736.836 c -0.17,16.426 -5.23,27.129 -11.03,29.578 -5.06,-3.504 -10.59,-13.398 -10.45,-29.793 0.07,-5.211 0.64,-9.781 1.52,-13.691 0,0.031 0,0 -0.02,0 -3.41,2.109 -7.5,4.101 -12.38,5.832 -15.49,5.5 -27.29,4.359 -31.64,-0.153 1.58,-5.988 8.95,-14.589 24.45,-20.097 4.96,-1.742 9.51,-2.813 13.48,-3.282 0.05,-0.16 0.12,-0.332 0.21,-0.468 -3.22,-2.692 -6.54,-6.211 -9.84,-10.66 -9.82,-13.172 -12.17,-24.77 -9.05,-30.282 6.12,-0.23 16.55,4.301 26.31,17.489 3.21,4.332 5.57,8.453 7.21,12.203 0.34,-0.012 0.71,-0.043 1.06,-0.051 1.6,-3.801 3.9,-7.93 7.05,-12.332 9.6,-13.32 19.95,-19.141 26.13,-17.848 2.11,5.821 0.91,17.071 -8.69,30.41 -3.11,4.368 -6.31,7.809 -9.39,10.52 0.03,0.027 0.07,0.051 0.07,0.07 0.14,0.391 0.16,0.77 0.25,1.16 4.08,0.539 8.7,1.707 13.73,3.579 15.39,5.8 23.7,14.218 24.05,20.511 -5.04,3.559 -16.21,5.391 -31.59,-0.39 -4.93,-1.84 -9.04,-3.969 -12.42,-6.161 -0.1,0.079 -0.17,0.141 -0.23,0.18 0.8,3.93 1.27,8.469 1.21,13.676 z m 56.15,-4.676 -12.85,-21.582 16.21,-17.789 -25.85,-11.719 0.32,-26.488 -27.47,5.02 -13.79,-22.59 -19.81,23.097 -0.16,-0.339 -26.13,-6.571 -1.54,28.11 0.1,0.062 -25.38,5.309 18.04,24.289 -0.13,0.043 -14.02,22.988 26.33,9.77 -3.54,24.023 26.43,-9.18 -0.12,0.645 16.96,20.906 16.82,-20.078 24.41,6.953 2.3,-26.687 22.87,-8.192 v 0" /><path
         id="path54"
         style="fill:rgba(33, 95, 67, 0.10);fill-opacity:1;fill-rule:nonzero;stroke:none"
         d="m 278.813,1150.01 c 16.199,-2.64 27.597,0.51 31.07,5.81 -2.602,5.59 -11.403,12.74 -27.602,15.4 -5.148,0.85 -9.718,1.07 -13.726,0.86 0.008,0 0,0.02 0,0.03 2.636,2.99 5.316,6.68 7.867,11.18 8.082,14.33 9,26.12 5.238,31.19 -6.137,-0.53 -15.89,-6.32 -23.961,-20.62 -2.578,-4.59 -4.379,-8.89 -5.547,-12.73 -0.172,-0.02 -0.332,-0.07 -0.492,-0.09 -2.097,3.59 -5.019,7.48 -8.816,11.5 -11.321,11.9 -22.34,16.24 -28.281,14.11 -1.309,-6.03 1.398,-17.04 12.707,-28.93 3.722,-3.92 7.355,-6.94 10.781,-9.22 -0.078,-0.32 -0.16,-0.66 -0.231,-1.01 -3.996,-0.92 -8.5,-2.5 -13.355,-4.85 -14.774,-7.17 -22.274,-16.36 -22.055,-22.67 5.356,-3.06 16.672,-3.82 31.434,3.35 4.828,2.33 8.789,4.88 11.984,7.43 0.027,-0.02 0.047,-0.05 0.067,-0.06 0.335,-0.18 0.714,-0.3 1.097,-0.46 -0.172,-4.1 0.172,-8.85 1.172,-14.15 3.059,-16.14 9.938,-25.77 16.09,-27.2 4.359,4.34 8.082,15.07 5.019,31.2 -0.984,5.15 -2.359,9.58 -3.941,13.29 0.078,0.07 0.152,0.13 0.231,0.21 3.71,-1.48 8.109,-2.73 13.25,-3.57 z m -14.274,-54.51 -19.027,16.36 -20.301,-12.9 -7.102,27.45 -26.156,4.25 9.656,26.2 -19.875,17.44 26.149,15.58 -0.309,0.2 -1.972,26.89 27.953,-3.32 0.039,-0.1 9.57,24.09 20.828,-21.93 0.051,0.11 25.09,9.87 5.101,-27.6 24.258,-0.66 -13.597,-24.45 h 0.656 l 17.711,-20.3 -22.68,-13.13 2.672,-25.25 -26.699,2.33 -12.016,-21.13 v 0" /><path
         id="path56"
         style="fill:rgba(33, 95, 67, 0.10);fill-opacity:1;fill-rule:nonzero;stroke:none"
         d="m 228.984,1293.87 c 16.051,3.47 25.508,10.57 26.805,16.76 -4.465,4.25 -15.266,7.69 -31.316,4.24 -5.086,-1.09 -9.43,-2.55 -13.082,-4.21 -0.02,0 -0.028,0.02 -0.028,0.03 1.371,3.75 2.52,8.16 3.242,13.29 2.266,16.27 -1.164,27.59 -6.523,30.93 -5.527,-2.73 -12.492,-11.68 -14.762,-27.95 -0.726,-5.21 -0.832,-9.86 -0.515,-13.89 -0.153,-0.07 -0.27,-0.16 -0.422,-0.26 -3.274,2.58 -7.41,5.15 -12.41,7.5 -14.891,6.92 -26.731,6.94 -31.493,2.78 0.993,-6.08 7.532,-15.35 22.422,-22.27 4.879,-2.28 9.379,-3.76 13.391,-4.62 0.047,-0.35 0.102,-0.7 0.16,-1.04 -3.379,-2.34 -6.992,-5.43 -10.668,-9.4 -11.133,-12.08 -14.754,-23.37 -12.242,-29.15 6.098,-0.9 16.91,2.5 28.035,14.59 3.645,3.93 6.402,7.73 8.445,11.3 0.02,0 0.047,-0.03 0.067,-0.03 0.41,-0.05 0.801,-0.02 1.203,-0.03 1.352,-3.88 3.387,-8.18 6.258,-12.74 8.75,-13.91 18.683,-20.36 24.922,-19.43 2.48,5.63 2.007,16.96 -6.735,30.87 -2.785,4.43 -5.687,8.06 -8.511,10.93 0.039,0.09 0.086,0.16 0.132,0.27 3.993,0.01 8.551,0.45 13.625,1.53 z m 6.653,-55.95 -23.703,8.27 -14.168,-19.43 -16.645,22.95 -25.91,-5.6 -0.578,27.91 -24.883,8.98 18.652,24.04 -0.351,0.09 -11.668,24.31 27.222,7.11 0.067,-0.06 0.113,25.91 27.406,-12.8 v 0.11 l 19.743,18.38 14.828,-23.84 22.843,8.26 -3.734,-27.72 0.613,0.24 23.918,-12.44 -16.32,-20.51 11.707,-22.49 -25.695,-7.6 -3.457,-24.07 v 0" /></g></g></svg>